<?xml version="1.0" encoding="utf-8"?>
<svg width="142" height="69" viewBox="0 0 142 69" fill="none" xmlns="http://www.w3.org/2000/svg">
<path d="M87.5921 12.7778H95.0428V45.7566H87.5921V12.7778ZM61.1706 45.7566H68.6212V32.918H81.1433V25.6772H68.6212V20.0185H82.6459V12.7778H61.1706V45.7566ZM113.012 12.7778H100.302V45.7566H113.012C122.341 45.7566 129.979 38.3333 129.979 29.2672C129.979 20.201 122.403 12.7778 113.012 12.7778ZM113.012 38.5767H107.753V20.0185H113.012C118.271 20.0185 122.529 24.2169 122.529 29.2672C122.529 34.3783 118.271 38.5767 113.012 38.5767ZM28.7385 8.57935H11.959V17.6455L21.2879 8.57935L25.7958 16.0026L33.3091 19.1666L34.3108 22.9391L45.3928 29.2672L41.3858 36.9338L36.9405 38.7592H21.2879L11.959 50.0159H27.9872C39.7579 50.0159 49.2747 40.7063 49.2747 29.328C49.2747 17.8889 39.7579 8.57935 28.7385 8.57935Z" fill="#E4002B"/>
<path d="M21.9143 59.1429C22.4152 59.4471 22.9787 59.5688 23.3543 59.5688C23.73 59.5688 23.9804 59.4471 23.9804 59.082C23.9804 58.6561 23.5421 58.6561 22.9787 58.4736C22.3526 58.291 21.7891 57.9868 21.7891 57.1958C21.7891 56.4048 22.4152 55.8572 23.3543 55.8572C23.7926 55.8572 24.3561 55.9789 24.7317 56.1614V57.135C24.2309 56.8307 23.6674 56.709 23.3543 56.709C23.0413 56.709 22.7908 56.8307 22.7908 57.135C22.7908 57.5 23.2291 57.5609 23.73 57.7434C24.4187 57.9868 24.9822 58.291 24.9822 59.0212C24.9822 59.873 24.2935 60.4207 23.3543 60.4207C22.916 60.4207 22.3526 60.299 21.9769 60.1164V59.1429H21.9143ZM27.424 55.9789H30.2414V56.8307H28.4257V57.6826H29.991V58.4736H28.4257V59.508H30.3041V60.3598H27.424V55.9789ZM35.0624 55.918C35.6259 55.918 36.0642 56.0397 36.4399 56.2223V57.1958C36.0642 56.9524 35.5633 56.7699 35.0624 56.7699C34.1233 56.7699 33.5598 57.3783 33.5598 58.1693C33.5598 58.8995 34.1233 59.5688 35.0624 59.5688C35.2503 59.5688 35.4381 59.508 35.6259 59.4471V58.7778H34.812V57.9868H36.5651V59.9947C36.1268 60.2381 35.5633 60.3598 34.9998 60.3598C33.5598 60.3598 32.558 59.3863 32.558 58.1085C32.6206 56.8916 33.6224 55.918 35.0624 55.918ZM39.1947 58.2302V55.9789H40.1965V58.2302C40.1965 59.1429 40.3843 59.5688 41.1982 59.5688C41.9496 59.5688 42.2 59.2037 42.2 58.2302V55.9789H43.1392V58.2302C43.1392 58.8995 43.0765 59.3863 42.7635 59.6905C42.4504 60.1164 41.8869 60.4207 41.1356 60.4207C40.3843 60.4207 39.8208 60.1773 39.5078 59.6905C39.3199 59.3254 39.1947 58.8995 39.1947 58.2302ZM45.7688 55.9789H47.2088C48.2106 55.9789 49.1497 56.2831 49.1497 57.3175C49.1497 57.8651 48.8367 58.3519 48.2106 58.5344L49.4628 60.3598H48.3358L47.2088 58.6561H46.7705V60.3598H45.7688V55.9789ZM47.2714 57.8651C47.8349 57.8651 48.148 57.7434 48.148 57.3175C48.148 56.9524 47.8975 56.7699 47.1462 56.7699H46.7705V57.8651H47.2714ZM51.5289 58.1693C51.5289 56.8916 52.5307 55.918 53.9081 55.918C55.2229 55.918 56.2873 56.8916 56.2873 58.1693C56.2873 59.4471 55.2855 60.4207 53.9081 60.4207C52.5307 60.4207 51.5289 59.4471 51.5289 58.1693ZM55.2855 58.1693C55.2855 57.3783 54.722 56.7699 53.9081 56.7699C53.1568 56.7699 52.5307 57.3783 52.5307 58.1693C52.5307 58.9603 53.0942 59.5688 53.9081 59.5688C54.6594 59.5688 55.2855 58.8995 55.2855 58.1693ZM58.7291 59.1429C59.23 59.4471 59.7935 59.5688 60.1691 59.5688C60.5448 59.5688 60.7952 59.4471 60.7952 59.082C60.7952 58.6561 60.357 58.6561 59.7935 58.4736C59.1674 58.291 58.6039 57.9868 58.6039 57.1958C58.6039 56.4048 59.23 55.8572 60.1691 55.8572C60.6074 55.8572 61.1709 55.9789 61.5466 56.1614V57.135C61.0457 56.8307 60.4822 56.709 60.1691 56.709C59.8561 56.709 59.6056 56.8307 59.6056 57.135C59.6056 57.5 60.0439 57.5609 60.5448 57.7434C61.2335 57.9868 61.797 58.291 61.797 59.0212C61.797 59.873 61.1083 60.4207 60.1691 60.4207C59.7309 60.4207 59.1674 60.299 58.7917 60.1164V59.1429H58.7291ZM67.5571 55.9789H68.8094C70.625 55.9789 71.5642 56.7699 71.5642 58.1693C71.5642 59.508 70.6877 60.3598 68.7467 60.3598H67.4945V55.9789H67.5571ZM68.8094 59.508C70.0616 59.508 70.5624 59.0212 70.5624 58.1693C70.5624 57.6826 70.3746 57.3175 70.0616 57.0741C69.7485 56.8307 69.3102 56.8307 68.8094 56.8307H68.5589V59.508H68.8094ZM74.0686 55.9789H76.8235V56.8307H75.0078V57.6826H76.573V58.4736H75.0078V59.508H76.8861V60.3598H74.006V55.9789H74.0686ZM79.3905 59.1429C79.8914 59.4471 80.4549 59.5688 80.8305 59.5688C81.2062 59.5688 81.4566 59.4471 81.4566 59.082C81.4566 58.6561 81.0183 58.6561 80.4548 58.4736C79.8287 58.291 79.2653 57.9868 79.2653 57.1958C79.2653 56.4048 79.8914 55.8572 80.8305 55.8572C81.2688 55.8572 81.8323 55.9789 82.2079 56.1614V57.135C81.7071 56.8307 81.1436 56.709 80.8305 56.709C80.5175 56.709 80.267 56.8307 80.267 57.135C80.267 57.5 80.7053 57.5609 81.2062 57.7434C81.8949 57.9868 82.4584 58.291 82.4584 59.0212C82.4584 59.873 81.7697 60.4207 80.8305 60.4207C80.3922 60.4207 79.8288 60.299 79.4531 60.1164V59.1429H79.3905ZM84.9002 55.9789H86.1524C87.9681 55.9789 88.9072 56.7699 88.9072 58.1693C88.9072 59.508 88.0307 60.3598 86.0898 60.3598H84.8376V55.9789H84.9002ZM86.1524 59.508C87.4046 59.508 87.9055 59.0212 87.9055 58.1693C87.9055 57.6826 87.7176 57.3175 87.4046 57.0741C87.0915 56.8307 86.6533 56.8307 86.1524 56.8307H85.9019V59.508H86.1524ZM91.4116 55.9789H94.2291V56.8307H92.4134V57.6826H93.9787V58.4736H92.4134V59.508H94.2917V60.3598H91.4116V55.9789ZM101.054 57.135L100.114 57.4392V56.5873L102.055 55.918V60.3598H101.054V57.135ZM105.123 59.082C105.123 58.5953 105.374 58.2302 105.875 58.0477C105.499 57.926 105.249 57.5609 105.249 57.135C105.249 56.4048 105.937 55.918 106.814 55.918C107.69 55.918 108.379 56.4656 108.379 57.135C108.379 57.5609 108.191 57.8651 107.753 58.0477C108.254 58.2302 108.504 58.6561 108.504 59.082C108.504 59.873 107.753 60.4207 106.814 60.4207C105.812 60.4207 105.123 59.873 105.123 59.082ZM107.502 59.0212C107.502 58.6561 107.189 58.4127 106.814 58.4127C106.438 58.4127 106.125 58.6561 106.125 59.0212C106.125 59.3863 106.438 59.6297 106.814 59.6297C107.189 59.6297 107.502 59.3863 107.502 59.0212ZM107.44 57.1958C107.44 56.8916 107.189 56.6482 106.814 56.6482C106.501 56.6482 106.188 56.8916 106.188 57.1958C106.188 57.5 106.438 57.7434 106.814 57.7434C107.127 57.7434 107.44 57.5 107.44 57.1958ZM111.384 59.8122C111.134 59.4471 110.946 58.8995 110.946 58.1693C110.946 57.3783 111.071 56.8916 111.384 56.5265C111.697 56.1614 112.136 55.918 112.637 55.918C113.137 55.918 113.576 56.1006 113.889 56.5265C114.202 56.8916 114.327 57.4392 114.327 58.1693C114.327 58.9603 114.202 59.4471 113.889 59.8122C113.576 60.1773 113.137 60.4207 112.637 60.4207C112.136 60.4207 111.697 60.1773 111.384 59.8122ZM113.137 59.3254C113.263 59.1429 113.325 58.7778 113.325 58.1693C113.325 57.6217 113.263 57.2566 113.137 57.0133C113.012 56.8916 112.887 56.7699 112.699 56.7699C112.511 56.7699 112.323 56.8916 112.261 57.0133C112.073 57.2566 112.073 57.6217 112.073 58.1693C112.073 58.7778 112.136 59.1429 112.261 59.3254C112.386 59.4471 112.511 59.5688 112.699 59.5688C112.887 59.5688 113.012 59.4471 113.137 59.3254ZM116.769 59.082C116.769 58.5953 117.019 58.2302 117.52 58.0477C117.144 57.926 116.894 57.5609 116.894 57.135C116.894 56.4048 117.583 55.918 118.459 55.918C119.336 55.918 120.025 56.4656 120.025 57.135C120.025 57.5609 119.774 57.8651 119.398 58.0477C119.899 58.2302 120.15 58.6561 120.15 59.082C120.15 59.873 119.398 60.4207 118.459 60.4207C117.52 60.4207 116.769 59.873 116.769 59.082ZM119.211 59.0212C119.211 58.6561 118.898 58.4127 118.522 58.4127C118.146 58.4127 117.833 58.6561 117.833 59.0212C117.833 59.3863 118.146 59.6297 118.522 59.6297C118.898 59.6297 119.211 59.3863 119.211 59.0212ZM119.085 57.1958C119.085 56.8916 118.835 56.6482 118.459 56.6482C118.146 56.6482 117.833 56.8916 117.833 57.1958C117.833 57.5 118.084 57.7434 118.459 57.7434C118.835 57.7434 119.085 57.5 119.085 57.1958Z" fill="#E4002B"/>
</svg>
