<svg width="445" height="433" viewBox="0 0 445 433" fill="none" xmlns="http://www.w3.org/2000/svg">
<g filter="url(#filter0_d_37_925)">
<path d="M216.638 246.808C269.254 246.808 311.907 204.229 311.907 151.705C311.907 99.1816 269.254 56.6028 216.638 56.6028C164.023 56.6028 121.37 99.1816 121.37 151.705C121.37 204.229 164.023 246.808 216.638 246.808Z" fill="#0A3F07"/>
</g>
<g filter="url(#filter1_d_37_925)">
<path d="M262.739 198.1C287.825 173.057 287.825 132.455 262.739 107.412C237.652 82.3695 196.979 82.3695 171.893 107.412C146.806 132.455 146.806 173.057 171.893 198.1C196.979 223.143 237.652 223.143 262.739 198.1Z" fill="#0FF107"/>
</g>
<g filter="url(#filter2_d_37_925)">
<path d="M260.046 162.807C265.618 139.238 250.996 115.621 227.385 110.058C203.774 104.495 180.116 119.093 174.543 142.662C168.971 166.232 183.593 189.849 207.204 195.412C230.815 200.975 254.473 186.377 260.046 162.807Z" fill="#0A3F07"/>
</g>
<g filter="url(#filter3_d_37_925)">
<path d="M245.12 159.291C248.747 143.95 239.23 128.579 223.862 124.958C208.494 121.337 193.096 130.838 189.469 146.179C185.842 161.52 195.36 176.891 210.727 180.512C226.095 184.133 241.493 174.632 245.12 159.291Z" fill="#10BF0A"/>
</g>
<g filter="url(#filter4_d_37_925)">
<path d="M132.328 377.639C184.943 377.639 227.596 335.06 227.596 282.537C227.596 230.013 184.943 187.434 132.328 187.434C79.7124 187.434 37.0593 230.013 37.0593 282.537C37.0593 335.06 79.7124 377.639 132.328 377.639Z" fill="#0A3F07"/>
</g>
<g filter="url(#filter5_d_37_925)">
<path d="M178.421 328.941C203.507 303.898 203.507 263.295 178.421 238.253C153.334 213.21 112.661 213.21 87.5744 238.253C62.488 263.295 62.488 303.898 87.5744 328.941C112.661 353.983 153.334 353.983 178.421 328.941Z" fill="#0FF107"/>
</g>
<g filter="url(#filter6_d_37_925)">
<path d="M175.759 293.642C181.332 270.072 166.709 246.455 143.098 240.892C119.488 235.329 95.8296 249.927 90.2569 273.496C84.6843 297.066 99.3071 320.683 122.918 326.246C146.529 331.809 170.187 317.211 175.759 293.642Z" fill="#0A3F07"/>
</g>
<g filter="url(#filter7_d_37_925)">
<path d="M160.833 290.125C164.461 274.784 154.943 259.413 139.575 255.792C124.208 252.171 108.809 261.672 105.182 277.013C101.555 292.354 111.073 307.725 126.441 311.346C141.808 314.967 157.206 305.466 160.833 290.125Z" fill="#10BF0A"/>
</g>
<g filter="url(#filter8_d_37_925)">
<path d="M116.358 190.71C148.647 177.359 163.98 140.406 150.605 108.174C137.231 75.9412 100.214 60.6348 67.9249 73.986C35.6361 87.3371 20.3031 124.29 33.6775 156.522C47.0519 188.755 84.0692 204.061 116.358 190.71Z" fill="#10BF0A"/>
</g>
<g filter="url(#filter9_d_37_925)">
<path d="M92.1342 183.422C120.397 183.422 143.309 160.55 143.309 132.336C143.309 104.122 120.397 81.2502 92.1342 81.2502C63.8711 81.2502 40.9592 104.122 40.9592 132.336C40.9592 160.55 63.8711 183.422 92.1342 183.422Z" fill="#0A3F07"/>
</g>
<g filter="url(#filter10_d_37_925)">
<mask id="mask0_37_925" style="mask-type:luminance" maskUnits="userSpaceOnUse" x="53" y="93" width="78" height="78">
<path d="M128.718 144.332C135.344 124.166 124.339 102.456 104.138 95.8412C83.9368 89.2266 62.1889 100.212 55.5627 120.378C48.9365 140.544 59.9412 162.254 80.1424 168.869C100.344 175.483 122.091 164.498 128.718 144.332Z" fill="white"/>
</mask>
<g mask="url(#mask0_37_925)">
<path d="M97.3659 58.9613L16.3337 123.466L17.2287 124.587L98.2609 60.0817L97.3659 58.9613Z" fill="white"/>
<path d="M99.9438 61.9136L18.9116 126.419L19.8066 127.539L100.839 63.034L99.9438 61.9136Z" fill="white"/>
<path d="M102.503 64.8808L21.4707 129.386L22.3657 130.506L103.398 66.0012L102.503 64.8808Z" fill="white"/>
<path d="M105.096 67.8757L24.0637 132.381L24.9587 133.501L105.991 68.996L105.096 67.8757Z" fill="white"/>
<path d="M107.674 70.828L26.6416 135.333L27.5366 136.454L108.569 71.9484L107.674 70.828Z" fill="white"/>
<path d="M110.276 73.7803L29.2434 138.285L30.1384 139.406L111.171 74.9006L110.276 73.7803Z" fill="white"/>
<path d="M112.853 76.7564L31.8213 141.262L32.7163 142.382L113.748 77.8768L112.853 76.7564Z" fill="white"/>
<path d="M115.431 79.7087L34.3992 144.214L35.2941 145.334L116.326 80.8291L115.431 79.7087Z" fill="white"/>
<path d="M118.009 82.661L36.9771 147.166L37.872 148.287L118.904 83.7814L118.009 82.661Z" fill="white"/>
<path d="M120.568 85.652L39.5361 150.157L40.4311 151.278L121.463 86.7724L120.568 85.652Z" fill="white"/>
<path d="M123.144 88.612L42.1008 153.103L42.9956 154.224L124.039 89.7325L123.144 88.612Z" fill="white"/>
<path d="M125.761 91.5836L44.7175 156.075L45.6123 157.195L126.656 92.7041L125.761 91.5836Z" fill="white"/>
<path d="M128.339 94.5604L47.2952 159.051L48.1899 160.172L129.233 95.681L128.339 94.5604Z" fill="white"/>
<path d="M130.916 97.5134L49.873 162.004L50.7678 163.125L131.811 98.6339L130.916 97.5134Z" fill="white"/>
<path d="M133.494 100.466L52.4507 164.957L53.3455 166.078L134.389 101.587L133.494 100.466Z" fill="white"/>
<path d="M136.072 103.443L55.0286 167.934L55.9233 169.055L136.967 104.564L136.072 103.443Z" fill="white"/>
<path d="M138.65 106.396L57.6064 170.887L58.5012 172.008L139.545 107.517L138.65 106.396Z" fill="white"/>
<path d="M141.209 109.364L60.1653 173.855L61.0601 174.976L142.103 110.485L141.209 109.364Z" fill="white"/>
<path d="M143.825 112.36L62.782 176.851L63.6768 177.971L144.72 113.48L143.825 112.36Z" fill="white"/>
<path d="M146.403 115.313L65.3599 179.804L66.2547 180.924L147.298 116.433L146.403 115.313Z" fill="white"/>
<path d="M148.164 118.506L67.3237 182.652L68.2137 183.77L149.054 119.624L148.164 118.506Z" fill="white"/>
<path d="M150.727 121.486L69.8865 185.632L70.7765 186.75L151.617 122.604L150.727 121.486Z" fill="white"/>
<path d="M154.136 124.195L73.093 188.686L73.9878 189.807L155.031 125.316L154.136 124.195Z" fill="white"/>
<path d="M156.714 127.148L75.6709 191.639L76.5657 192.76L157.609 128.269L156.714 127.148Z" fill="white"/>
<path d="M159.288 130.159L78.2446 194.65L79.1394 195.77L160.183 131.279L159.288 130.159Z" fill="white"/>
<path d="M161.866 133.112L80.8225 197.603L81.7173 198.723L162.761 134.232L161.866 133.112Z" fill="white"/>
<path d="M164.468 136.065L83.4243 200.556L84.3191 201.676L165.363 137.185L164.468 136.065Z" fill="white"/>
<path d="M167.045 139.041L86.002 203.532L86.8967 204.653L167.94 140.162L167.045 139.041Z" fill="white"/>
<path d="M169.623 141.994L88.5798 206.485L89.4746 207.606L170.518 143.115L169.623 141.994Z" fill="white"/>
</g>
</g>
<g filter="url(#filter11_d_37_925)">
<path d="M349.71 272.833C381.998 259.482 397.331 222.529 383.957 190.296C370.583 158.064 333.565 142.757 301.276 156.109C268.988 169.46 253.655 206.413 267.029 238.645C280.403 270.878 317.421 286.184 349.71 272.833Z" fill="#10BF0A"/>
</g>
<g filter="url(#filter12_d_37_925)">
<path d="M325.496 265.556C353.759 265.556 376.671 242.684 376.671 214.47C376.671 186.256 353.759 163.384 325.496 163.384C297.233 163.384 274.321 186.256 274.321 214.47C274.321 242.684 297.233 265.556 325.496 265.556Z" fill="#0A3F07"/>
</g>
<g filter="url(#filter13_d_37_925)">
<mask id="mask1_37_925" style="mask-type:luminance" maskUnits="userSpaceOnUse" x="287" y="176" width="78" height="78">
<path d="M362.123 226.592C368.749 206.426 357.744 184.716 337.543 178.102C317.342 171.487 295.594 182.472 288.968 202.638C282.342 222.804 293.346 244.514 313.547 251.129C333.749 257.744 355.496 246.758 362.123 226.592Z" fill="white"/>
</mask>
<g mask="url(#mask1_37_925)">
<path d="M330.74 141.189L249.708 205.695L250.603 206.815L331.635 142.31L330.74 141.189Z" fill="white"/>
<path d="M333.342 144.166L252.31 208.671L253.205 209.791L334.237 145.286L333.342 144.166Z" fill="white"/>
<path d="M335.916 147.152L254.884 211.657L255.779 212.777L336.811 148.272L335.916 147.152Z" fill="white"/>
<path d="M338.494 150.128L257.462 214.633L258.357 215.753L339.389 151.248L338.494 150.128Z" fill="white"/>
<path d="M339.777 153.96L258.936 218.106L259.826 219.224L340.667 155.078L339.777 153.96Z" fill="white"/>
<path d="M343.65 156.032L262.618 220.537L263.513 221.658L344.545 157.153L343.65 156.032Z" fill="white"/>
<path d="M346.228 159.008L265.196 223.514L266.091 224.634L347.123 160.129L346.228 159.008Z" fill="white"/>
<path d="M348.806 161.961L267.773 226.466L268.668 227.586L349.701 163.081L348.806 161.961Z" fill="white"/>
<path d="M351.407 164.913L270.375 229.418L271.27 230.539L352.302 166.033L351.407 164.913Z" fill="white"/>
<path d="M353.981 167.923L272.949 232.428L273.844 233.548L354.876 169.043L353.981 167.923Z" fill="white"/>
<path d="M356.572 170.876L275.528 235.367L276.423 236.487L357.467 171.996L356.572 170.876Z" fill="white"/>
<path d="M359.149 173.852L278.106 238.344L279.001 239.464L360.044 174.973L359.149 173.852Z" fill="white"/>
<path d="M361.727 176.805L280.684 241.296L281.578 242.417L362.622 177.926L361.727 176.805Z" fill="white"/>
<path d="M364.305 179.758L283.261 244.249L284.156 245.37L365.2 180.879L364.305 179.758Z" fill="white"/>
<path d="M366.883 182.735L285.839 247.226L286.734 248.347L367.778 183.856L366.883 182.735Z" fill="white"/>
<path d="M369.46 185.688L288.417 250.179L289.312 251.3L370.355 186.809L369.46 185.688Z" fill="white"/>
<path d="M372.034 188.675L290.991 253.166L291.886 254.286L372.929 189.795L372.034 188.675Z" fill="white"/>
<path d="M373.11 192.5L292.269 256.646L293.159 257.764L374 193.618L373.11 192.5Z" fill="white"/>
<path d="M377.214 194.605L296.17 259.096L297.065 260.216L378.109 195.725L377.214 194.605Z" fill="white"/>
<path d="M379.792 197.558L298.748 262.049L299.643 263.169L380.686 198.678L379.792 197.558Z" fill="white"/>
<path d="M380.822 201.391L299.981 265.537L300.871 266.655L381.712 202.509L380.822 201.391Z" fill="white"/>
<path d="M383.385 204.347L302.544 268.493L303.434 269.611L384.275 205.465L383.385 204.347Z" fill="white"/>
<path d="M387.525 206.44L306.481 270.931L307.376 272.052L388.42 207.561L387.525 206.44Z" fill="white"/>
<path d="M390.118 209.412L309.074 273.903L309.969 275.023L391.012 210.532L390.118 209.412Z" fill="white"/>
<path d="M392.677 212.404L311.633 276.895L312.528 278.015L393.571 213.524L392.677 212.404Z" fill="white"/>
<path d="M395.278 215.357L314.235 279.848L315.13 280.968L396.173 216.477L395.278 215.357Z" fill="white"/>
<path d="M396.219 219.183L315.378 283.329L316.268 284.447L397.109 220.301L396.219 219.183Z" fill="white"/>
<path d="M400.434 221.286L319.39 285.777L320.285 286.898L401.329 222.407L400.434 221.286Z" fill="white"/>
<path d="M403.012 224.239L321.968 288.73L322.863 289.851L403.906 225.36L403.012 224.239Z" fill="white"/>
</g>
</g>
<g filter="url(#filter14_d_37_925)">
<path d="M263.244 138.856C292.934 138.856 317.003 114.829 317.003 85.1909C317.003 55.5524 292.934 31.5256 263.244 31.5256C233.554 31.5256 209.485 55.5524 209.485 85.1909C209.485 114.829 233.554 138.856 263.244 138.856Z" fill="#0B5808"/>
</g>
<g filter="url(#filter15_d_37_925)">
<path d="M263.172 128.777C254.536 128.777 246.095 126.221 238.914 121.432C231.734 116.642 226.138 109.835 222.833 101.871C219.528 93.9063 218.664 85.1425 220.348 76.6875C222.033 68.2326 226.191 60.4662 232.298 54.3705C238.404 48.2748 246.184 44.1236 254.654 42.4418C263.123 40.76 271.903 41.6231 279.881 44.9221C287.859 48.2211 294.678 53.8077 299.476 60.9755C304.274 68.1432 306.835 76.5702 306.835 85.1909C306.822 96.7469 302.218 107.826 294.032 115.997C285.846 124.169 274.748 128.765 263.172 128.777ZM263.172 45.3778C255.274 45.3778 247.554 47.7156 240.988 52.0956C234.421 56.4755 229.303 62.7009 226.281 69.9845C223.259 77.2682 222.468 85.2828 224.009 93.0151C225.55 100.747 229.353 107.85 234.937 113.424C240.521 118.999 247.636 122.796 255.382 124.334C263.128 125.872 271.156 125.082 278.453 122.065C285.749 119.048 291.985 113.939 296.373 107.384C300.76 100.829 303.102 93.1224 303.102 85.2386C303.09 74.6708 298.879 64.5393 291.393 57.0667C283.907 49.5941 273.758 45.3904 263.172 45.3778Z" fill="white"/>
</g>
<g filter="url(#filter16_d_37_925)">
<path d="M263.172 115.021C257.262 115.021 251.485 113.271 246.57 109.994C241.656 106.716 237.826 102.057 235.565 96.6063C233.303 91.1556 232.711 85.1578 233.864 79.3714C235.017 73.5849 237.863 68.2698 242.042 64.098C246.221 59.9262 251.546 57.0851 257.342 55.9341C263.139 54.7832 269.147 55.3739 274.607 57.6316C280.068 59.8894 284.735 63.7128 288.018 68.6183C291.301 73.5238 293.054 79.2911 293.054 85.1909C293.041 93.0984 289.889 100.678 284.288 106.27C278.687 111.861 271.093 115.008 263.172 115.021ZM263.172 64.6754C259.107 64.6754 255.134 65.8786 251.754 68.1329C248.375 70.3871 245.741 73.5912 244.185 77.34C242.63 81.0887 242.223 85.2137 243.016 89.1933C243.809 93.1729 245.766 96.8285 248.64 99.6976C251.514 102.567 255.176 104.521 259.163 105.312C263.149 106.104 267.281 105.698 271.037 104.145C274.792 102.592 278.002 99.9625 280.26 96.5888C282.518 93.215 283.723 89.2485 283.723 85.1909C283.717 79.7518 281.55 74.5373 277.697 70.6912C273.844 66.8452 268.621 64.6817 263.172 64.6754Z" fill="#0A3F07"/>
</g>
<g filter="url(#filter17_d_37_925)">
<path d="M325.727 158.747C329.047 152.969 327.047 145.598 321.259 142.283C315.471 138.969 308.087 140.966 304.767 146.744C301.447 152.522 303.447 159.893 309.235 163.207C315.023 166.522 322.407 164.525 325.727 158.747Z" fill="#0A3F07"/>
</g>
<g filter="url(#filter18_d_37_925)">
<path d="M322.831 153.902C323.468 149.729 320.596 145.831 316.416 145.194C312.236 144.558 308.331 147.425 307.694 151.598C307.056 155.77 309.928 159.669 314.108 160.305C318.288 160.941 322.193 158.074 322.831 153.902Z" fill="#0FF107"/>
</g>
<g filter="url(#filter19_d_37_925)">
<path d="M263.244 361.757C292.934 361.757 317.003 337.73 317.003 308.092C317.003 278.453 292.934 254.426 263.244 254.426C233.554 254.426 209.485 278.453 209.485 308.092C209.485 337.73 233.554 361.757 263.244 361.757Z" fill="#0B5808"/>
</g>
<g filter="url(#filter20_d_37_925)">
<path d="M263.172 351.678C254.539 351.664 246.105 349.096 238.934 344.298C231.763 339.5 226.178 332.687 222.884 324.722C219.59 316.756 218.736 307.995 220.429 299.544C222.122 291.094 226.286 283.334 232.395 277.246C238.504 271.157 246.284 267.013 254.752 265.337C263.22 263.661 271.995 264.529 279.969 267.83C287.943 271.131 294.758 276.717 299.553 283.884C304.347 291.05 306.906 299.474 306.906 308.092C306.894 319.66 302.28 330.75 294.078 338.923C285.877 347.097 274.761 351.684 263.172 351.678ZM263.172 268.231C255.278 268.245 247.564 270.595 241.007 274.983C234.45 279.372 229.344 285.602 226.332 292.887C223.321 300.172 222.541 308.184 224.089 315.912C225.638 323.639 229.447 330.735 235.034 336.303C240.621 341.87 247.736 345.659 255.48 347.192C263.224 348.724 271.249 347.93 278.541 344.911C285.833 341.892 292.065 336.783 296.45 330.23C300.834 323.676 303.174 315.972 303.174 308.092C303.161 297.511 298.941 287.369 291.439 279.894C283.938 272.42 273.771 268.224 263.172 268.231Z" fill="white"/>
</g>
<g filter="url(#filter21_d_37_925)">
<path d="M263.172 337.922C257.265 337.907 251.495 336.146 246.59 332.859C241.685 329.573 237.867 324.909 235.616 319.457C233.365 314.006 232.784 308.01 233.945 302.228C235.106 296.447 237.958 291.138 242.139 286.973C246.321 282.809 251.646 279.975 257.44 278.83C263.235 277.684 269.24 278.279 274.696 280.539C280.152 282.799 284.814 286.622 288.095 291.526C291.375 296.43 293.126 302.195 293.126 308.092C293.113 316.012 289.951 323.602 284.334 329.196C278.717 334.789 271.106 337.928 263.172 337.922ZM263.172 287.576C259.107 287.576 255.134 288.779 251.754 291.034C248.375 293.288 245.741 296.492 244.185 300.241C242.63 303.989 242.223 308.114 243.016 312.094C243.809 316.074 245.766 319.729 248.64 322.598C251.514 325.467 255.176 327.421 259.163 328.213C263.149 329.005 267.281 328.598 271.037 327.045C274.792 325.493 278.002 322.863 280.26 319.489C282.518 316.116 283.723 312.149 283.723 308.092C283.717 302.652 281.55 297.438 277.697 293.592C273.844 289.746 268.621 287.582 263.172 287.576Z" fill="#0A3F07"/>
</g>
<g filter="url(#filter22_d_37_925)">
<path d="M231.182 48.7456C234.502 42.9677 232.502 35.5969 226.714 32.2825C220.926 28.968 213.542 30.9651 210.222 36.7431C206.902 42.521 208.902 49.8918 214.69 53.2062C220.478 56.5207 227.862 54.5236 231.182 48.7456Z" fill="#0A3F07"/>
</g>
<g filter="url(#filter23_d_37_925)">
<path d="M228.278 43.9086C228.915 39.736 226.043 35.8376 221.863 35.2013C217.683 34.565 213.778 37.4318 213.141 41.6045C212.504 45.7771 215.375 49.6755 219.555 50.3118C223.735 50.9481 227.64 48.0813 228.278 43.9086Z" fill="#0FF107"/>
</g>
<g filter="url(#filter24_d_37_925)">
<path d="M76.8478 357.671C80.168 351.893 78.1674 344.522 72.3794 341.208C66.5914 337.893 59.2077 339.89 55.8875 345.668C52.5673 351.446 54.5679 358.817 60.3559 362.132C66.1439 365.446 73.5276 363.449 76.8478 357.671Z" fill="#0A3F07"/>
</g>
<g filter="url(#filter25_d_37_925)">
<path d="M73.9333 352.84C74.5706 348.667 71.6988 344.769 67.5189 344.132C63.339 343.496 59.4338 346.363 58.7964 350.535C58.159 354.708 61.0308 358.606 65.2108 359.243C69.3907 359.879 73.2959 357.012 73.9333 352.84Z" fill="#0FF107"/>
</g>
<g filter="url(#filter26_d_37_925)">
<path d="M271.312 247.187C274.632 241.409 272.631 234.038 266.843 230.724C261.055 227.409 253.672 229.406 250.351 235.184C247.031 240.962 249.032 248.333 254.82 251.647C260.608 254.962 267.991 252.965 271.312 247.187Z" fill="#0A3F07"/>
</g>
<g filter="url(#filter27_d_37_925)">
<path d="M268.4 242.346C269.037 238.173 266.165 234.275 261.985 233.638C257.805 233.002 253.9 235.869 253.263 240.042C252.625 244.214 255.497 248.113 259.677 248.749C263.857 249.385 267.762 246.518 268.4 242.346Z" fill="#0FF107"/>
</g>
<g filter="url(#filter28_d_37_925)">
<path d="M107.639 70.6137C110.959 64.8358 108.959 57.465 103.171 54.1506C97.3829 50.8362 89.9992 52.8332 86.679 58.6112C83.3588 64.3891 85.3594 71.7599 91.1474 75.0743C96.9354 78.3888 104.319 76.3917 107.639 70.6137Z" fill="#0A3F07"/>
</g>
<g filter="url(#filter29_d_37_925)">
<path d="M104.757 65.7597C105.394 61.5871 102.522 57.6887 98.3424 57.0524C94.1625 56.4162 90.2573 59.283 89.6199 63.4556C88.9825 67.6283 91.8543 71.5267 96.0342 72.1629C100.214 72.7992 104.119 69.9324 104.757 65.7597Z" fill="#0FF107"/>
</g>
<g filter="url(#filter30_d_37_925)">
<path d="M371.814 323.389C375.134 317.611 373.133 310.24 367.345 306.925C361.557 303.611 354.174 305.608 350.854 311.386C347.533 317.164 349.534 324.535 355.322 327.849C361.11 331.164 368.494 329.167 371.814 323.389Z" fill="#0A3F07"/>
</g>
<g filter="url(#filter31_d_37_925)">
<path d="M368.923 318.557C369.56 314.384 366.689 310.486 362.509 309.85C358.329 309.214 354.424 312.08 353.786 316.253C353.149 320.426 356.021 324.324 360.201 324.96C364.38 325.597 368.286 322.73 368.923 318.557Z" fill="#0FF107"/>
</g>
<g filter="url(#filter32_d_37_925)">
<path d="M294.201 365.164C297.521 359.386 295.521 352.015 289.733 348.701C283.945 345.387 276.561 347.384 273.241 353.162C269.921 358.939 271.921 366.31 277.709 369.625C283.497 372.939 290.881 370.942 294.201 365.164Z" fill="#0A3F07"/>
</g>
<g filter="url(#filter33_d_37_925)">
<path d="M291.287 360.342C291.925 356.17 289.053 352.271 284.873 351.635C280.693 350.999 276.788 353.866 276.15 358.038C275.513 362.211 278.385 366.109 282.565 366.746C286.745 367.382 290.65 364.515 291.287 360.342Z" fill="#0FF107"/>
</g>
<defs>
<filter id="filter0_d_37_925" x="115.37" y="47.6028" width="214.537" height="214.205" filterUnits="userSpaceOnUse" color-interpolation-filters="sRGB">
<feFlood flood-opacity="0" result="BackgroundImageFix"/>
<feColorMatrix in="SourceAlpha" type="matrix" values="0 0 0 0 0 0 0 0 0 0 0 0 0 0 0 0 0 0 127 0" result="hardAlpha"/>
<feOffset dx="6" dy="3"/>
<feGaussianBlur stdDeviation="6"/>
<feComposite in2="hardAlpha" operator="out"/>
<feColorMatrix type="matrix" values="0 0 0 0 0 0 0 0 0 0 0 0 0 0 0 0 0 0 0.25 0"/>
<feBlend mode="normal" in2="BackgroundImageFix" result="effect1_dropShadow_37_925"/>
<feBlend mode="normal" in="SourceGraphic" in2="effect1_dropShadow_37_925" result="shape"/>
</filter>
<filter id="filter1_d_37_925" x="147.078" y="79.6302" width="152.476" height="152.252" filterUnits="userSpaceOnUse" color-interpolation-filters="sRGB">
<feFlood flood-opacity="0" result="BackgroundImageFix"/>
<feColorMatrix in="SourceAlpha" type="matrix" values="0 0 0 0 0 0 0 0 0 0 0 0 0 0 0 0 0 0 127 0" result="hardAlpha"/>
<feOffset dx="6" dy="3"/>
<feGaussianBlur stdDeviation="6"/>
<feComposite in2="hardAlpha" operator="out"/>
<feColorMatrix type="matrix" values="0 0 0 0 0 0 0 0 0 0 0 0 0 0 0 0 0 0 0.25 0"/>
<feBlend mode="normal" in2="BackgroundImageFix" result="effect1_dropShadow_37_925"/>
<feBlend mode="normal" in="SourceGraphic" in2="effect1_dropShadow_37_925" result="shape"/>
</filter>
<filter id="filter2_d_37_925" x="167.359" y="99.8757" width="111.871" height="111.718" filterUnits="userSpaceOnUse" color-interpolation-filters="sRGB">
<feFlood flood-opacity="0" result="BackgroundImageFix"/>
<feColorMatrix in="SourceAlpha" type="matrix" values="0 0 0 0 0 0 0 0 0 0 0 0 0 0 0 0 0 0 127 0" result="hardAlpha"/>
<feOffset dx="6" dy="3"/>
<feGaussianBlur stdDeviation="6"/>
<feComposite in2="hardAlpha" operator="out"/>
<feColorMatrix type="matrix" values="0 0 0 0 0 0 0 0 0 0 0 0 0 0 0 0 0 0 0.25 0"/>
<feBlend mode="normal" in2="BackgroundImageFix" result="effect1_dropShadow_37_925"/>
<feBlend mode="normal" in="SourceGraphic" in2="effect1_dropShadow_37_925" result="shape"/>
</filter>
<filter id="filter3_d_37_925" x="182.698" y="115.188" width="81.1931" height="81.0934" filterUnits="userSpaceOnUse" color-interpolation-filters="sRGB">
<feFlood flood-opacity="0" result="BackgroundImageFix"/>
<feColorMatrix in="SourceAlpha" type="matrix" values="0 0 0 0 0 0 0 0 0 0 0 0 0 0 0 0 0 0 127 0" result="hardAlpha"/>
<feOffset dx="6" dy="3"/>
<feGaussianBlur stdDeviation="6"/>
<feComposite in2="hardAlpha" operator="out"/>
<feColorMatrix type="matrix" values="0 0 0 0 0 0 0 0 0 0 0 0 0 0 0 0 0 0 0.25 0"/>
<feBlend mode="normal" in2="BackgroundImageFix" result="effect1_dropShadow_37_925"/>
<feBlend mode="normal" in="SourceGraphic" in2="effect1_dropShadow_37_925" result="shape"/>
</filter>
<filter id="filter4_d_37_925" x="31.0593" y="178.434" width="214.537" height="214.205" filterUnits="userSpaceOnUse" color-interpolation-filters="sRGB">
<feFlood flood-opacity="0" result="BackgroundImageFix"/>
<feColorMatrix in="SourceAlpha" type="matrix" values="0 0 0 0 0 0 0 0 0 0 0 0 0 0 0 0 0 0 127 0" result="hardAlpha"/>
<feOffset dx="6" dy="3"/>
<feGaussianBlur stdDeviation="6"/>
<feComposite in2="hardAlpha" operator="out"/>
<feColorMatrix type="matrix" values="0 0 0 0 0 0 0 0 0 0 0 0 0 0 0 0 0 0 0.25 0"/>
<feBlend mode="normal" in2="BackgroundImageFix" result="effect1_dropShadow_37_925"/>
<feBlend mode="normal" in="SourceGraphic" in2="effect1_dropShadow_37_925" result="shape"/>
</filter>
<filter id="filter5_d_37_925" x="62.7595" y="210.471" width="152.476" height="152.252" filterUnits="userSpaceOnUse" color-interpolation-filters="sRGB">
<feFlood flood-opacity="0" result="BackgroundImageFix"/>
<feColorMatrix in="SourceAlpha" type="matrix" values="0 0 0 0 0 0 0 0 0 0 0 0 0 0 0 0 0 0 127 0" result="hardAlpha"/>
<feOffset dx="6" dy="3"/>
<feGaussianBlur stdDeviation="6"/>
<feComposite in2="hardAlpha" operator="out"/>
<feColorMatrix type="matrix" values="0 0 0 0 0 0 0 0 0 0 0 0 0 0 0 0 0 0 0.25 0"/>
<feBlend mode="normal" in2="BackgroundImageFix" result="effect1_dropShadow_37_925"/>
<feBlend mode="normal" in="SourceGraphic" in2="effect1_dropShadow_37_925" result="shape"/>
</filter>
<filter id="filter6_d_37_925" x="83.0725" y="230.71" width="111.871" height="111.718" filterUnits="userSpaceOnUse" color-interpolation-filters="sRGB">
<feFlood flood-opacity="0" result="BackgroundImageFix"/>
<feColorMatrix in="SourceAlpha" type="matrix" values="0 0 0 0 0 0 0 0 0 0 0 0 0 0 0 0 0 0 127 0" result="hardAlpha"/>
<feOffset dx="6" dy="3"/>
<feGaussianBlur stdDeviation="6"/>
<feComposite in2="hardAlpha" operator="out"/>
<feColorMatrix type="matrix" values="0 0 0 0 0 0 0 0 0 0 0 0 0 0 0 0 0 0 0.25 0"/>
<feBlend mode="normal" in2="BackgroundImageFix" result="effect1_dropShadow_37_925"/>
<feBlend mode="normal" in="SourceGraphic" in2="effect1_dropShadow_37_925" result="shape"/>
</filter>
<filter id="filter7_d_37_925" x="98.4114" y="246.022" width="81.1931" height="81.0935" filterUnits="userSpaceOnUse" color-interpolation-filters="sRGB">
<feFlood flood-opacity="0" result="BackgroundImageFix"/>
<feColorMatrix in="SourceAlpha" type="matrix" values="0 0 0 0 0 0 0 0 0 0 0 0 0 0 0 0 0 0 127 0" result="hardAlpha"/>
<feOffset dx="6" dy="3"/>
<feGaussianBlur stdDeviation="6"/>
<feComposite in2="hardAlpha" operator="out"/>
<feColorMatrix type="matrix" values="0 0 0 0 0 0 0 0 0 0 0 0 0 0 0 0 0 0 0.25 0"/>
<feBlend mode="normal" in2="BackgroundImageFix" result="effect1_dropShadow_37_925"/>
<feBlend mode="normal" in="SourceGraphic" in2="effect1_dropShadow_37_925" result="shape"/>
</filter>
<filter id="filter8_d_37_925" x="22.844" y="60.1608" width="150.595" height="150.375" filterUnits="userSpaceOnUse" color-interpolation-filters="sRGB">
<feFlood flood-opacity="0" result="BackgroundImageFix"/>
<feColorMatrix in="SourceAlpha" type="matrix" values="0 0 0 0 0 0 0 0 0 0 0 0 0 0 0 0 0 0 127 0" result="hardAlpha"/>
<feOffset dx="6" dy="3"/>
<feGaussianBlur stdDeviation="6"/>
<feComposite in2="hardAlpha" operator="out"/>
<feColorMatrix type="matrix" values="0 0 0 0 0 0 0 0 0 0 0 0 0 0 0 0 0 0 0.25 0"/>
<feBlend mode="normal" in2="BackgroundImageFix" result="effect1_dropShadow_37_925"/>
<feBlend mode="normal" in="SourceGraphic" in2="effect1_dropShadow_37_925" result="shape"/>
</filter>
<filter id="filter9_d_37_925" x="34.9592" y="72.2502" width="126.35" height="126.172" filterUnits="userSpaceOnUse" color-interpolation-filters="sRGB">
<feFlood flood-opacity="0" result="BackgroundImageFix"/>
<feColorMatrix in="SourceAlpha" type="matrix" values="0 0 0 0 0 0 0 0 0 0 0 0 0 0 0 0 0 0 127 0" result="hardAlpha"/>
<feOffset dx="6" dy="3"/>
<feGaussianBlur stdDeviation="6"/>
<feComposite in2="hardAlpha" operator="out"/>
<feColorMatrix type="matrix" values="0 0 0 0 0 0 0 0 0 0 0 0 0 0 0 0 0 0 0.25 0"/>
<feBlend mode="normal" in2="BackgroundImageFix" result="effect1_dropShadow_37_925"/>
<feBlend mode="normal" in="SourceGraphic" in2="effect1_dropShadow_37_925" result="shape"/>
</filter>
<filter id="filter10_d_37_925" x="47.6348" y="84.9167" width="101.011" height="100.877" filterUnits="userSpaceOnUse" color-interpolation-filters="sRGB">
<feFlood flood-opacity="0" result="BackgroundImageFix"/>
<feColorMatrix in="SourceAlpha" type="matrix" values="0 0 0 0 0 0 0 0 0 0 0 0 0 0 0 0 0 0 127 0" result="hardAlpha"/>
<feOffset dx="6" dy="3"/>
<feGaussianBlur stdDeviation="6"/>
<feComposite in2="hardAlpha" operator="out"/>
<feColorMatrix type="matrix" values="0 0 0 0 0 0 0 0 0 0 0 0 0 0 0 0 0 0 0.25 0"/>
<feBlend mode="normal" in2="BackgroundImageFix" result="effect1_dropShadow_37_925"/>
<feBlend mode="normal" in="SourceGraphic" in2="effect1_dropShadow_37_925" result="shape"/>
</filter>
<filter id="filter11_d_37_925" x="256.196" y="142.283" width="150.595" height="150.374" filterUnits="userSpaceOnUse" color-interpolation-filters="sRGB">
<feFlood flood-opacity="0" result="BackgroundImageFix"/>
<feColorMatrix in="SourceAlpha" type="matrix" values="0 0 0 0 0 0 0 0 0 0 0 0 0 0 0 0 0 0 127 0" result="hardAlpha"/>
<feOffset dx="6" dy="3"/>
<feGaussianBlur stdDeviation="6"/>
<feComposite in2="hardAlpha" operator="out"/>
<feColorMatrix type="matrix" values="0 0 0 0 0 0 0 0 0 0 0 0 0 0 0 0 0 0 0.25 0"/>
<feBlend mode="normal" in2="BackgroundImageFix" result="effect1_dropShadow_37_925"/>
<feBlend mode="normal" in="SourceGraphic" in2="effect1_dropShadow_37_925" result="shape"/>
</filter>
<filter id="filter12_d_37_925" x="268.321" y="154.384" width="126.35" height="126.172" filterUnits="userSpaceOnUse" color-interpolation-filters="sRGB">
<feFlood flood-opacity="0" result="BackgroundImageFix"/>
<feColorMatrix in="SourceAlpha" type="matrix" values="0 0 0 0 0 0 0 0 0 0 0 0 0 0 0 0 0 0 127 0" result="hardAlpha"/>
<feOffset dx="6" dy="3"/>
<feGaussianBlur stdDeviation="6"/>
<feComposite in2="hardAlpha" operator="out"/>
<feColorMatrix type="matrix" values="0 0 0 0 0 0 0 0 0 0 0 0 0 0 0 0 0 0 0.25 0"/>
<feBlend mode="normal" in2="BackgroundImageFix" result="effect1_dropShadow_37_925"/>
<feBlend mode="normal" in="SourceGraphic" in2="effect1_dropShadow_37_925" result="shape"/>
</filter>
<filter id="filter13_d_37_925" x="281.04" y="167.177" width="101.011" height="100.876" filterUnits="userSpaceOnUse" color-interpolation-filters="sRGB">
<feFlood flood-opacity="0" result="BackgroundImageFix"/>
<feColorMatrix in="SourceAlpha" type="matrix" values="0 0 0 0 0 0 0 0 0 0 0 0 0 0 0 0 0 0 127 0" result="hardAlpha"/>
<feOffset dx="6" dy="3"/>
<feGaussianBlur stdDeviation="6"/>
<feComposite in2="hardAlpha" operator="out"/>
<feColorMatrix type="matrix" values="0 0 0 0 0 0 0 0 0 0 0 0 0 0 0 0 0 0 0.25 0"/>
<feBlend mode="normal" in2="BackgroundImageFix" result="effect1_dropShadow_37_925"/>
<feBlend mode="normal" in="SourceGraphic" in2="effect1_dropShadow_37_925" result="shape"/>
</filter>
<filter id="filter14_d_37_925" x="203.485" y="22.5256" width="131.518" height="131.331" filterUnits="userSpaceOnUse" color-interpolation-filters="sRGB">
<feFlood flood-opacity="0" result="BackgroundImageFix"/>
<feColorMatrix in="SourceAlpha" type="matrix" values="0 0 0 0 0 0 0 0 0 0 0 0 0 0 0 0 0 0 127 0" result="hardAlpha"/>
<feOffset dx="6" dy="3"/>
<feGaussianBlur stdDeviation="6"/>
<feComposite in2="hardAlpha" operator="out"/>
<feColorMatrix type="matrix" values="0 0 0 0 0 0 0 0 0 0 0 0 0 0 0 0 0 0 0.25 0"/>
<feBlend mode="normal" in2="BackgroundImageFix" result="effect1_dropShadow_37_925"/>
<feBlend mode="normal" in="SourceGraphic" in2="effect1_dropShadow_37_925" result="shape"/>
</filter>
<filter id="filter15_d_37_925" x="213.509" y="32.6042" width="111.325" height="111.173" filterUnits="userSpaceOnUse" color-interpolation-filters="sRGB">
<feFlood flood-opacity="0" result="BackgroundImageFix"/>
<feColorMatrix in="SourceAlpha" type="matrix" values="0 0 0 0 0 0 0 0 0 0 0 0 0 0 0 0 0 0 127 0" result="hardAlpha"/>
<feOffset dx="6" dy="3"/>
<feGaussianBlur stdDeviation="6"/>
<feComposite in2="hardAlpha" operator="out"/>
<feColorMatrix type="matrix" values="0 0 0 0 0 0 0 0 0 0 0 0 0 0 0 0 0 0 0.25 0"/>
<feBlend mode="normal" in2="BackgroundImageFix" result="effect1_dropShadow_37_925"/>
<feBlend mode="normal" in="SourceGraphic" in2="effect1_dropShadow_37_925" result="shape"/>
</filter>
<filter id="filter16_d_37_925" x="227.29" y="46.361" width="83.7639" height="83.6599" filterUnits="userSpaceOnUse" color-interpolation-filters="sRGB">
<feFlood flood-opacity="0" result="BackgroundImageFix"/>
<feColorMatrix in="SourceAlpha" type="matrix" values="0 0 0 0 0 0 0 0 0 0 0 0 0 0 0 0 0 0 127 0" result="hardAlpha"/>
<feOffset dx="6" dy="3"/>
<feGaussianBlur stdDeviation="6"/>
<feComposite in2="hardAlpha" operator="out"/>
<feColorMatrix type="matrix" values="0 0 0 0 0 0 0 0 0 0 0 0 0 0 0 0 0 0 0.25 0"/>
<feBlend mode="normal" in2="BackgroundImageFix" result="effect1_dropShadow_37_925"/>
<feBlend mode="normal" in="SourceGraphic" in2="effect1_dropShadow_37_925" result="shape"/>
</filter>
<filter id="filter17_d_37_925" x="297.163" y="131.682" width="48.168" height="48.126" filterUnits="userSpaceOnUse" color-interpolation-filters="sRGB">
<feFlood flood-opacity="0" result="BackgroundImageFix"/>
<feColorMatrix in="SourceAlpha" type="matrix" values="0 0 0 0 0 0 0 0 0 0 0 0 0 0 0 0 0 0 127 0" result="hardAlpha"/>
<feOffset dx="6" dy="3"/>
<feGaussianBlur stdDeviation="6"/>
<feComposite in2="hardAlpha" operator="out"/>
<feColorMatrix type="matrix" values="0 0 0 0 0 0 0 0 0 0 0 0 0 0 0 0 0 0 0.25 0"/>
<feBlend mode="normal" in2="BackgroundImageFix" result="effect1_dropShadow_37_925"/>
<feBlend mode="normal" in="SourceGraphic" in2="effect1_dropShadow_37_925" result="shape"/>
</filter>
<filter id="filter18_d_37_925" x="301.605" y="136.106" width="39.314" height="39.2873" filterUnits="userSpaceOnUse" color-interpolation-filters="sRGB">
<feFlood flood-opacity="0" result="BackgroundImageFix"/>
<feColorMatrix in="SourceAlpha" type="matrix" values="0 0 0 0 0 0 0 0 0 0 0 0 0 0 0 0 0 0 127 0" result="hardAlpha"/>
<feOffset dx="6" dy="3"/>
<feGaussianBlur stdDeviation="6"/>
<feComposite in2="hardAlpha" operator="out"/>
<feColorMatrix type="matrix" values="0 0 0 0 0 0 0 0 0 0 0 0 0 0 0 0 0 0 0.25 0"/>
<feBlend mode="normal" in2="BackgroundImageFix" result="effect1_dropShadow_37_925"/>
<feBlend mode="normal" in="SourceGraphic" in2="effect1_dropShadow_37_925" result="shape"/>
</filter>
<filter id="filter19_d_37_925" x="203.485" y="245.426" width="131.518" height="131.331" filterUnits="userSpaceOnUse" color-interpolation-filters="sRGB">
<feFlood flood-opacity="0" result="BackgroundImageFix"/>
<feColorMatrix in="SourceAlpha" type="matrix" values="0 0 0 0 0 0 0 0 0 0 0 0 0 0 0 0 0 0 127 0" result="hardAlpha"/>
<feOffset dx="6" dy="3"/>
<feGaussianBlur stdDeviation="6"/>
<feComposite in2="hardAlpha" operator="out"/>
<feColorMatrix type="matrix" values="0 0 0 0 0 0 0 0 0 0 0 0 0 0 0 0 0 0 0.25 0"/>
<feBlend mode="normal" in2="BackgroundImageFix" result="effect1_dropShadow_37_925"/>
<feBlend mode="normal" in="SourceGraphic" in2="effect1_dropShadow_37_925" result="shape"/>
</filter>
<filter id="filter20_d_37_925" x="213.581" y="255.505" width="111.325" height="111.173" filterUnits="userSpaceOnUse" color-interpolation-filters="sRGB">
<feFlood flood-opacity="0" result="BackgroundImageFix"/>
<feColorMatrix in="SourceAlpha" type="matrix" values="0 0 0 0 0 0 0 0 0 0 0 0 0 0 0 0 0 0 127 0" result="hardAlpha"/>
<feOffset dx="6" dy="3"/>
<feGaussianBlur stdDeviation="6"/>
<feComposite in2="hardAlpha" operator="out"/>
<feColorMatrix type="matrix" values="0 0 0 0 0 0 0 0 0 0 0 0 0 0 0 0 0 0 0.25 0"/>
<feBlend mode="normal" in2="BackgroundImageFix" result="effect1_dropShadow_37_925"/>
<feBlend mode="normal" in="SourceGraphic" in2="effect1_dropShadow_37_925" result="shape"/>
</filter>
<filter id="filter21_d_37_925" x="227.362" y="269.262" width="83.7639" height="83.6598" filterUnits="userSpaceOnUse" color-interpolation-filters="sRGB">
<feFlood flood-opacity="0" result="BackgroundImageFix"/>
<feColorMatrix in="SourceAlpha" type="matrix" values="0 0 0 0 0 0 0 0 0 0 0 0 0 0 0 0 0 0 127 0" result="hardAlpha"/>
<feOffset dx="6" dy="3"/>
<feGaussianBlur stdDeviation="6"/>
<feComposite in2="hardAlpha" operator="out"/>
<feColorMatrix type="matrix" values="0 0 0 0 0 0 0 0 0 0 0 0 0 0 0 0 0 0 0.25 0"/>
<feBlend mode="normal" in2="BackgroundImageFix" result="effect1_dropShadow_37_925"/>
<feBlend mode="normal" in="SourceGraphic" in2="effect1_dropShadow_37_925" result="shape"/>
</filter>
<filter id="filter22_d_37_925" x="202.618" y="21.6813" width="48.168" height="48.126" filterUnits="userSpaceOnUse" color-interpolation-filters="sRGB">
<feFlood flood-opacity="0" result="BackgroundImageFix"/>
<feColorMatrix in="SourceAlpha" type="matrix" values="0 0 0 0 0 0 0 0 0 0 0 0 0 0 0 0 0 0 127 0" result="hardAlpha"/>
<feOffset dx="6" dy="3"/>
<feGaussianBlur stdDeviation="6"/>
<feComposite in2="hardAlpha" operator="out"/>
<feColorMatrix type="matrix" values="0 0 0 0 0 0 0 0 0 0 0 0 0 0 0 0 0 0 0.25 0"/>
<feBlend mode="normal" in2="BackgroundImageFix" result="effect1_dropShadow_37_925"/>
<feBlend mode="normal" in="SourceGraphic" in2="effect1_dropShadow_37_925" result="shape"/>
</filter>
<filter id="filter23_d_37_925" x="207.052" y="26.1129" width="39.314" height="39.2873" filterUnits="userSpaceOnUse" color-interpolation-filters="sRGB">
<feFlood flood-opacity="0" result="BackgroundImageFix"/>
<feColorMatrix in="SourceAlpha" type="matrix" values="0 0 0 0 0 0 0 0 0 0 0 0 0 0 0 0 0 0 127 0" result="hardAlpha"/>
<feOffset dx="6" dy="3"/>
<feGaussianBlur stdDeviation="6"/>
<feComposite in2="hardAlpha" operator="out"/>
<feColorMatrix type="matrix" values="0 0 0 0 0 0 0 0 0 0 0 0 0 0 0 0 0 0 0.25 0"/>
<feBlend mode="normal" in2="BackgroundImageFix" result="effect1_dropShadow_37_925"/>
<feBlend mode="normal" in="SourceGraphic" in2="effect1_dropShadow_37_925" result="shape"/>
</filter>
<filter id="filter24_d_37_925" x="48.2837" y="330.607" width="48.168" height="48.126" filterUnits="userSpaceOnUse" color-interpolation-filters="sRGB">
<feFlood flood-opacity="0" result="BackgroundImageFix"/>
<feColorMatrix in="SourceAlpha" type="matrix" values="0 0 0 0 0 0 0 0 0 0 0 0 0 0 0 0 0 0 127 0" result="hardAlpha"/>
<feOffset dx="6" dy="3"/>
<feGaussianBlur stdDeviation="6"/>
<feComposite in2="hardAlpha" operator="out"/>
<feColorMatrix type="matrix" values="0 0 0 0 0 0 0 0 0 0 0 0 0 0 0 0 0 0 0.25 0"/>
<feBlend mode="normal" in2="BackgroundImageFix" result="effect1_dropShadow_37_925"/>
<feBlend mode="normal" in="SourceGraphic" in2="effect1_dropShadow_37_925" result="shape"/>
</filter>
<filter id="filter25_d_37_925" x="52.7078" y="335.044" width="39.314" height="39.2874" filterUnits="userSpaceOnUse" color-interpolation-filters="sRGB">
<feFlood flood-opacity="0" result="BackgroundImageFix"/>
<feColorMatrix in="SourceAlpha" type="matrix" values="0 0 0 0 0 0 0 0 0 0 0 0 0 0 0 0 0 0 127 0" result="hardAlpha"/>
<feOffset dx="6" dy="3"/>
<feGaussianBlur stdDeviation="6"/>
<feComposite in2="hardAlpha" operator="out"/>
<feColorMatrix type="matrix" values="0 0 0 0 0 0 0 0 0 0 0 0 0 0 0 0 0 0 0.25 0"/>
<feBlend mode="normal" in2="BackgroundImageFix" result="effect1_dropShadow_37_925"/>
<feBlend mode="normal" in="SourceGraphic" in2="effect1_dropShadow_37_925" result="shape"/>
</filter>
<filter id="filter26_d_37_925" x="242.748" y="220.122" width="48.168" height="48.126" filterUnits="userSpaceOnUse" color-interpolation-filters="sRGB">
<feFlood flood-opacity="0" result="BackgroundImageFix"/>
<feColorMatrix in="SourceAlpha" type="matrix" values="0 0 0 0 0 0 0 0 0 0 0 0 0 0 0 0 0 0 127 0" result="hardAlpha"/>
<feOffset dx="6" dy="3"/>
<feGaussianBlur stdDeviation="6"/>
<feComposite in2="hardAlpha" operator="out"/>
<feColorMatrix type="matrix" values="0 0 0 0 0 0 0 0 0 0 0 0 0 0 0 0 0 0 0.25 0"/>
<feBlend mode="normal" in2="BackgroundImageFix" result="effect1_dropShadow_37_925"/>
<feBlend mode="normal" in="SourceGraphic" in2="effect1_dropShadow_37_925" result="shape"/>
</filter>
<filter id="filter27_d_37_925" x="247.174" y="224.55" width="39.314" height="39.2873" filterUnits="userSpaceOnUse" color-interpolation-filters="sRGB">
<feFlood flood-opacity="0" result="BackgroundImageFix"/>
<feColorMatrix in="SourceAlpha" type="matrix" values="0 0 0 0 0 0 0 0 0 0 0 0 0 0 0 0 0 0 127 0" result="hardAlpha"/>
<feOffset dx="6" dy="3"/>
<feGaussianBlur stdDeviation="6"/>
<feComposite in2="hardAlpha" operator="out"/>
<feColorMatrix type="matrix" values="0 0 0 0 0 0 0 0 0 0 0 0 0 0 0 0 0 0 0.25 0"/>
<feBlend mode="normal" in2="BackgroundImageFix" result="effect1_dropShadow_37_925"/>
<feBlend mode="normal" in="SourceGraphic" in2="effect1_dropShadow_37_925" result="shape"/>
</filter>
<filter id="filter28_d_37_925" x="79.0752" y="43.5494" width="48.168" height="48.126" filterUnits="userSpaceOnUse" color-interpolation-filters="sRGB">
<feFlood flood-opacity="0" result="BackgroundImageFix"/>
<feColorMatrix in="SourceAlpha" type="matrix" values="0 0 0 0 0 0 0 0 0 0 0 0 0 0 0 0 0 0 127 0" result="hardAlpha"/>
<feOffset dx="6" dy="3"/>
<feGaussianBlur stdDeviation="6"/>
<feComposite in2="hardAlpha" operator="out"/>
<feColorMatrix type="matrix" values="0 0 0 0 0 0 0 0 0 0 0 0 0 0 0 0 0 0 0.25 0"/>
<feBlend mode="normal" in2="BackgroundImageFix" result="effect1_dropShadow_37_925"/>
<feBlend mode="normal" in="SourceGraphic" in2="effect1_dropShadow_37_925" result="shape"/>
</filter>
<filter id="filter29_d_37_925" x="83.5312" y="47.9641" width="39.314" height="39.2873" filterUnits="userSpaceOnUse" color-interpolation-filters="sRGB">
<feFlood flood-opacity="0" result="BackgroundImageFix"/>
<feColorMatrix in="SourceAlpha" type="matrix" values="0 0 0 0 0 0 0 0 0 0 0 0 0 0 0 0 0 0 127 0" result="hardAlpha"/>
<feOffset dx="6" dy="3"/>
<feGaussianBlur stdDeviation="6"/>
<feComposite in2="hardAlpha" operator="out"/>
<feColorMatrix type="matrix" values="0 0 0 0 0 0 0 0 0 0 0 0 0 0 0 0 0 0 0.25 0"/>
<feBlend mode="normal" in2="BackgroundImageFix" result="effect1_dropShadow_37_925"/>
<feBlend mode="normal" in="SourceGraphic" in2="effect1_dropShadow_37_925" result="shape"/>
</filter>
<filter id="filter30_d_37_925" x="343.25" y="296.324" width="48.1681" height="48.126" filterUnits="userSpaceOnUse" color-interpolation-filters="sRGB">
<feFlood flood-opacity="0" result="BackgroundImageFix"/>
<feColorMatrix in="SourceAlpha" type="matrix" values="0 0 0 0 0 0 0 0 0 0 0 0 0 0 0 0 0 0 127 0" result="hardAlpha"/>
<feOffset dx="6" dy="3"/>
<feGaussianBlur stdDeviation="6"/>
<feComposite in2="hardAlpha" operator="out"/>
<feColorMatrix type="matrix" values="0 0 0 0 0 0 0 0 0 0 0 0 0 0 0 0 0 0 0.25 0"/>
<feBlend mode="normal" in2="BackgroundImageFix" result="effect1_dropShadow_37_925"/>
<feBlend mode="normal" in="SourceGraphic" in2="effect1_dropShadow_37_925" result="shape"/>
</filter>
<filter id="filter31_d_37_925" x="347.698" y="300.761" width="39.314" height="39.2872" filterUnits="userSpaceOnUse" color-interpolation-filters="sRGB">
<feFlood flood-opacity="0" result="BackgroundImageFix"/>
<feColorMatrix in="SourceAlpha" type="matrix" values="0 0 0 0 0 0 0 0 0 0 0 0 0 0 0 0 0 0 127 0" result="hardAlpha"/>
<feOffset dx="6" dy="3"/>
<feGaussianBlur stdDeviation="6"/>
<feComposite in2="hardAlpha" operator="out"/>
<feColorMatrix type="matrix" values="0 0 0 0 0 0 0 0 0 0 0 0 0 0 0 0 0 0 0.25 0"/>
<feBlend mode="normal" in2="BackgroundImageFix" result="effect1_dropShadow_37_925"/>
<feBlend mode="normal" in="SourceGraphic" in2="effect1_dropShadow_37_925" result="shape"/>
</filter>
<filter id="filter32_d_37_925" x="265.637" y="338.1" width="48.168" height="48.126" filterUnits="userSpaceOnUse" color-interpolation-filters="sRGB">
<feFlood flood-opacity="0" result="BackgroundImageFix"/>
<feColorMatrix in="SourceAlpha" type="matrix" values="0 0 0 0 0 0 0 0 0 0 0 0 0 0 0 0 0 0 127 0" result="hardAlpha"/>
<feOffset dx="6" dy="3"/>
<feGaussianBlur stdDeviation="6"/>
<feComposite in2="hardAlpha" operator="out"/>
<feColorMatrix type="matrix" values="0 0 0 0 0 0 0 0 0 0 0 0 0 0 0 0 0 0 0.25 0"/>
<feBlend mode="normal" in2="BackgroundImageFix" result="effect1_dropShadow_37_925"/>
<feBlend mode="normal" in="SourceGraphic" in2="effect1_dropShadow_37_925" result="shape"/>
</filter>
<filter id="filter33_d_37_925" x="270.062" y="342.547" width="39.314" height="39.2874" filterUnits="userSpaceOnUse" color-interpolation-filters="sRGB">
<feFlood flood-opacity="0" result="BackgroundImageFix"/>
<feColorMatrix in="SourceAlpha" type="matrix" values="0 0 0 0 0 0 0 0 0 0 0 0 0 0 0 0 0 0 127 0" result="hardAlpha"/>
<feOffset dx="6" dy="3"/>
<feGaussianBlur stdDeviation="6"/>
<feComposite in2="hardAlpha" operator="out"/>
<feColorMatrix type="matrix" values="0 0 0 0 0 0 0 0 0 0 0 0 0 0 0 0 0 0 0.25 0"/>
<feBlend mode="normal" in2="BackgroundImageFix" result="effect1_dropShadow_37_925"/>
<feBlend mode="normal" in="SourceGraphic" in2="effect1_dropShadow_37_925" result="shape"/>
</filter>
</defs>
</svg>
