<svg width="364" height="349" viewBox="0 0 364 349" fill="none" xmlns="http://www.w3.org/2000/svg">
    <g clip-path="url(#clip0_37_925)">
        <path d="M189.638 217.808C242.254 217.808 284.907 175.229 284.907 122.705C284.907 70.1816 242.254 27.6028 189.638 27.6028C137.023 27.6028 94.3701 70.1816 94.3701 122.705C94.3701 175.229 137.023 217.808 189.638 217.808Z" fill="#0A3F07"/>
        <path d="M235.739 169.1C260.825 144.057 260.825 103.455 235.739 78.4123C210.652 53.3695 169.979 53.3695 144.893 78.4123C119.806 103.455 119.806 144.057 144.893 169.1C169.979 194.143 210.652 194.143 235.739 169.1Z" fill="#0FF107"/>
        <path d="M233.046 133.807C238.618 110.238 223.996 86.6211 200.385 81.0581C176.774 75.4952 153.116 90.0925 147.543 113.662C141.971 137.232 156.593 160.849 180.204 166.412C203.815 171.975 227.473 157.377 233.046 133.807Z" fill="#0A3F07"/>
        <path d="M218.12 130.291C221.747 114.95 212.23 99.5786 196.862 95.9578C181.494 92.3371 166.096 101.838 162.469 117.179C158.842 132.52 168.36 147.891 183.727 151.512C199.095 155.133 214.493 145.632 218.12 130.291Z" fill="#10BF0A"/>
        <path d="M105.328 348.639C157.943 348.639 200.596 306.06 200.596 253.537C200.596 201.013 157.943 158.434 105.328 158.434C52.7124 158.434 10.0593 201.013 10.0593 253.537C10.0593 306.06 52.7124 348.639 105.328 348.639Z" fill="#0A3F07"/>
        <path d="M151.421 299.941C176.507 274.898 176.507 234.295 151.421 209.253C126.334 184.21 85.6609 184.21 60.5744 209.253C35.488 234.295 35.488 274.898 60.5744 299.941C85.6609 324.983 126.334 324.983 151.421 299.941Z" fill="#0FF107"/>
        <path d="M148.759 264.642C154.332 241.072 139.709 217.455 116.098 211.892C92.4875 206.329 68.8296 220.927 63.2569 244.496C57.6843 268.066 72.3071 291.683 95.9179 297.246C119.529 302.809 143.187 288.211 148.759 264.642Z" fill="#0A3F07"/>
        <path d="M133.833 261.125C137.461 245.784 127.943 230.413 112.575 226.792C97.2077 223.171 81.8095 232.672 78.1824 248.013C74.5553 263.354 84.0729 278.725 99.4405 282.346C114.808 285.967 130.206 276.466 133.833 261.125Z" fill="#10BF0A"/>
        <path d="M89.358 161.71C121.647 148.359 136.98 111.406 123.605 79.1737C110.231 46.9412 73.2136 31.6348 40.9249 44.986C8.63613 58.3371 -6.69694 95.29 6.67749 127.522C20.0519 159.755 57.0692 175.061 89.358 161.71Z" fill="#10BF0A"/>
        <path d="M65.1342 154.422C93.3974 154.422 116.309 131.55 116.309 103.336C116.309 75.1221 93.3974 52.2502 65.1342 52.2502C36.8711 52.2502 13.9592 75.1221 13.9592 103.336C13.9592 131.55 36.8711 154.422 65.1342 154.422Z" fill="#0A3F07"/>
        <path d="M322.71 243.833C354.998 230.482 370.331 193.529 356.957 161.296C343.583 129.064 306.565 113.757 274.276 127.109C241.988 140.46 226.655 177.413 240.029 209.645C253.403 241.878 290.421 257.184 322.71 243.833Z" fill="#10BF0A"/>
        <path d="M298.496 236.556C326.759 236.556 349.671 213.684 349.671 185.47C349.671 157.256 326.759 134.384 298.496 134.384C270.233 134.384 247.321 157.256 247.321 185.47C247.321 213.684 270.233 236.556 298.496 236.556Z" fill="#0A3F07"/>
        <path d="M236.244 109.856C265.934 109.856 290.003 85.8294 290.003 56.1909C290.003 26.5524 265.934 2.52563 236.244 2.52563C206.554 2.52563 182.485 26.5524 182.485 56.1909C182.485 85.8294 206.554 109.856 236.244 109.856Z" fill="#0B5808"/>
        <path d="M236.172 97.7775C227.536 97.7775 219.095 95.2212 211.914 90.4318C204.734 85.6424 199.138 78.8351 195.833 70.8707C192.528 62.9063 191.664 54.1425 193.348 45.6875C195.033 37.2326 199.191 29.4662 205.298 23.3705C211.404 17.2748 219.184 13.1236 227.654 11.4418C236.123 9.75997 244.903 10.6231 252.881 13.9221C260.859 17.2211 267.678 22.8077 272.476 29.9755C277.274 37.1432 279.835 45.5702 279.835 54.1909C279.822 65.7469 275.218 76.8259 267.032 84.9973C258.846 93.1686 247.748 97.7648 236.172 97.7775ZM236.172 14.3778C228.274 14.3778 220.554 16.7156 213.988 21.0956C207.421 25.4755 202.303 31.7009 199.281 38.9845C196.259 46.2682 195.468 54.2828 197.009 62.0151C198.55 69.7473 202.353 76.8499 207.937 82.4245C213.521 87.9991 220.636 91.7955 228.382 93.3336C236.128 94.8716 244.156 94.0822 251.453 91.0652C258.749 88.0483 264.985 82.9392 269.373 76.3841C273.76 69.829 276.102 62.1224 276.102 54.2386C276.09 43.6708 271.879 33.5393 264.393 26.0667C256.907 18.5941 246.758 14.3904 236.172 14.3778Z" fill="white"/>
        <path d="M236.172 86.0209C230.262 86.0209 224.485 84.2714 219.57 80.9936C214.656 77.7159 210.826 73.0571 208.565 67.6063C206.303 62.1556 205.711 56.1578 206.864 50.3714C208.017 44.5849 210.863 39.2698 215.042 35.098C219.221 30.9262 224.546 28.0851 230.342 26.9341C236.139 25.7832 242.147 26.3739 247.607 28.6316C253.068 30.8894 257.735 34.7128 261.018 39.6183C264.301 44.5238 266.054 50.2911 266.054 56.1909C266.041 64.0984 262.889 71.6785 257.288 77.2699C251.687 82.8614 244.093 86.0082 236.172 86.0209ZM236.172 35.6754C232.107 35.6754 228.134 36.8786 224.754 39.1329C221.375 41.3871 218.741 44.5912 217.185 48.34C215.63 52.0887 215.223 56.2137 216.016 60.1933C216.809 64.1729 218.766 67.8285 221.64 70.6976C224.514 73.5668 228.176 75.5207 232.163 76.3123C236.149 77.1039 240.281 76.6976 244.037 75.1448C247.792 73.5921 251.002 70.9625 253.26 67.5888C255.518 64.215 256.723 60.2485 256.723 56.1909C256.717 50.7518 254.55 45.5373 250.697 41.6912C246.844 37.8452 241.621 35.6817 236.172 35.6754Z" fill="#0A3F07"/>
        <path d="M298.727 128.747C302.047 122.969 300.047 115.598 294.259 112.283C288.471 108.969 281.087 110.966 277.767 116.744C274.447 122.522 276.447 129.893 282.235 133.207C288.023 136.522 295.407 134.525 298.727 128.747Z" fill="#0A3F07"/>
        <path d="M295.831 124.902C296.468 120.729 293.596 116.831 289.416 116.194C285.236 115.558 281.331 118.425 280.694 122.598C280.056 126.77 282.928 130.669 287.108 131.305C291.288 131.941 295.193 129.074 295.831 124.902Z" fill="#0FF107"/>
        <path d="M236.244 332.757C265.934 332.757 290.003 308.73 290.003 279.092C290.003 249.453 265.934 225.426 236.244 225.426C206.554 225.426 182.485 249.453 182.485 279.092C182.485 308.73 206.554 332.757 236.244 332.757Z" fill="#0B5808"/>
        <path d="M236.172 322.678C227.539 322.664 219.105 320.096 211.934 315.298C204.763 310.5 199.178 303.687 195.884 295.722C192.59 287.756 191.736 278.995 193.429 270.544C195.122 262.094 199.286 254.334 205.395 248.246C211.504 242.157 219.284 238.013 227.752 236.337C236.22 234.661 244.995 235.529 252.969 238.83C260.943 242.131 267.758 247.717 272.553 254.884C277.347 262.05 279.906 270.474 279.906 279.092C279.894 290.66 275.28 301.75 267.078 309.923C258.877 318.097 247.761 322.684 236.172 322.678ZM236.172 239.231C228.278 239.245 220.564 241.595 214.007 245.983C207.45 250.372 202.344 256.602 199.332 263.887C196.321 271.172 195.541 279.184 197.089 286.912C198.638 294.639 202.447 301.735 208.034 307.303C213.621 312.87 220.736 316.659 228.48 318.192C236.224 319.724 244.249 318.93 251.541 315.911C258.833 312.892 265.065 307.783 269.45 301.23C273.834 294.676 276.174 286.972 276.174 279.092C276.161 268.511 271.941 258.369 264.439 250.894C256.938 243.42 246.771 239.224 236.172 239.231Z" fill="white"/>
        <path d="M236.172 308.922C230.265 308.907 224.495 307.146 219.59 303.859C214.685 300.573 210.867 295.909 208.616 290.457C206.365 285.006 205.784 279.01 206.945 273.228C208.106 267.447 210.958 262.138 215.139 257.973C219.321 253.809 224.646 250.975 230.44 249.83C236.235 248.684 242.24 249.279 247.696 251.539C253.152 253.799 257.814 257.622 261.095 262.526C264.375 267.43 266.126 273.195 266.126 279.092C266.113 287.012 262.951 294.602 257.334 300.196C251.717 305.789 244.106 308.928 236.172 308.922ZM236.172 258.576C232.107 258.576 228.134 259.779 224.754 262.034C221.375 264.288 218.741 267.492 217.185 271.241C215.63 274.989 215.223 279.114 216.016 283.094C216.809 287.074 218.766 290.729 221.64 293.598C224.514 296.467 228.176 298.421 232.163 299.213C236.149 300.005 240.281 299.598 244.037 298.045C247.792 296.493 251.002 293.863 253.26 290.489C255.518 287.116 256.723 283.149 256.723 279.092C256.717 273.652 254.55 268.438 250.697 264.592C246.844 260.746 241.621 258.582 236.172 258.576Z" fill="#0A3F07"/>
        <path d="M204.182 19.7456C207.502 13.9677 205.502 6.59687 199.714 3.28245C193.926 -0.0319666 186.542 1.96512 183.222 7.74306C179.902 13.521 181.902 20.8918 187.69 24.2062C193.478 27.5207 200.862 25.5236 204.182 19.7456Z" fill="#0A3F07"/>
        <path d="M201.278 14.9086C201.915 10.736 199.043 6.83758 194.863 6.20131C190.683 5.56504 186.778 8.43184 186.141 12.6045C185.504 16.7771 188.375 20.6755 192.555 21.3118C196.735 21.9481 200.64 19.0813 201.278 14.9086Z" fill="#0FF107"/>
        <path d="M49.8478 328.671C53.168 322.893 51.1674 315.522 45.3794 312.208C39.5914 308.893 32.2077 310.89 28.8875 316.668C25.5673 322.446 27.5679 329.817 33.3559 333.132C39.1439 336.446 46.5276 334.449 49.8478 328.671Z" fill="#0A3F07"/>
        <path d="M46.9333 323.84C47.5706 319.667 44.6988 315.769 40.5189 315.132C36.339 314.496 32.4338 317.363 31.7964 321.535C31.159 325.708 34.0308 329.606 38.2108 330.243C42.3907 330.879 46.2959 328.012 46.9333 323.84Z" fill="#0FF107"/>
        <path d="M244.312 218.187C247.632 212.409 245.631 205.038 239.843 201.724C234.055 198.409 226.672 200.406 223.351 206.184C220.031 211.962 222.032 219.333 227.82 222.647C233.608 225.962 240.991 223.965 244.312 218.187Z" fill="#0A3F07"/>
        <path d="M241.4 213.346C242.037 209.173 239.165 205.275 234.985 204.638C230.805 204.002 226.9 206.869 226.263 211.042C225.625 215.214 228.497 219.113 232.677 219.749C236.857 220.385 240.762 217.518 241.4 213.346Z" fill="#0FF107"/>
        <path d="M80.6393 41.6137C83.9595 35.8358 81.9589 28.465 76.1709 25.1506C70.3829 21.8362 62.9992 23.8332 59.679 29.6112C56.3588 35.3891 58.3594 42.7599 64.1474 46.0743C69.9354 49.3888 77.3191 47.3917 80.6393 41.6137Z" fill="#0A3F07"/>
        <path d="M77.7568 36.7597C78.3941 32.5871 75.5223 28.6887 71.3424 28.0524C67.1625 27.4162 63.2573 30.283 62.6199 34.4556C61.9825 38.6283 64.8543 42.5267 69.0342 43.1629C73.2142 43.7992 77.1194 40.9324 77.7568 36.7597Z" fill="#0FF107"/>
        <path d="M344.814 294.389C348.134 288.611 346.133 281.24 340.345 277.925C334.557 274.611 327.174 276.608 323.854 282.386C320.533 288.164 322.534 295.535 328.322 298.849C334.11 302.164 341.494 300.167 344.814 294.389Z" fill="#0A3F07"/>
        <path d="M341.923 289.557C342.56 285.384 339.689 281.486 335.509 280.85C331.329 280.214 327.424 283.08 326.786 287.253C326.149 291.426 329.021 295.324 333.201 295.96C337.38 296.597 341.286 293.73 341.923 289.557Z" fill="#0FF107"/>
        <path d="M267.201 336.164C270.521 330.386 268.521 323.015 262.733 319.701C256.945 316.387 249.561 318.384 246.241 324.162C242.921 329.939 244.921 337.31 250.709 340.625C256.497 343.939 263.881 341.942 267.201 336.164Z" fill="#0A3F07"/>
        <path d="M264.287 331.342C264.925 327.17 262.053 323.271 257.873 322.635C253.693 321.999 249.788 324.866 249.15 329.038C248.513 333.211 251.385 337.109 255.565 337.746C259.745 338.382 263.65 335.515 264.287 331.342Z" fill="#0FF107"/>
    </g>
    <defs>
        <clipPath id="clip0_37_925">
            <rect width="364" height="349" fill="white"/>
        </clipPath>
    </defs>
</svg>