<svg width="213" height="33" viewBox="0 0 213 33" fill="none" xmlns="http://www.w3.org/2000/svg">
    <path d="M16.0241 32.5009C24.8474 32.5009 31.9893 25.337 31.976 16.5C31.9627 7.66292 24.7992 0.499084 15.976 0.499084C7.15267 0.499084 0.0107785 7.66292 0.0240746 16.5C0.0373706 25.337 7.20082 32.5009 16.0241 32.5009Z" fill="#0A3F07"/>
    <path opacity="0.6" d="M16.0118 28.5004C22.6293 28.5004 27.9857 23.1276 27.9757 16.4998C27.9658 9.87196 22.5932 4.49908 15.9757 4.49908C9.35828 4.49908 4.00185 9.87196 4.0118 16.4998C4.02176 23.1276 9.39433 28.5004 16.0118 28.5004Z" fill="#0FA609"/>
    <path d="M15.9838 24.501C20.3955 24.501 23.97 20.919 23.9677 16.5005C23.9654 12.082 20.3872 8.50006 15.9755 8.50006C11.5639 8.50006 7.98941 12.082 7.9917 16.5005C7.99399 20.919 11.5722 24.501 15.9838 24.501Z" fill="#0FF107"/>
    <path d="M43.9727 8.86719C45.3789 8.86719 46.5391 9.04297 47.4531 9.39453C48.375 9.73828 49.0625 10.2656 49.5156 10.9766C49.9688 11.6875 50.1953 12.5938 50.1953 13.6953C50.1953 14.6016 50.0312 15.3594 49.7031 15.9688C49.375 16.5703 48.9453 17.0586 48.4141 17.4336C47.8828 17.8086 47.3164 18.0977 46.7148 18.3008L51.4141 26H49.0938L44.8984 18.8516H41.3359V26H39.3438V8.86719H43.9727ZM43.8555 10.5898H41.3359V17.1641H44.0547C45.4531 17.1641 46.4805 16.8789 47.1367 16.3086C47.8008 15.7383 48.1328 14.8984 48.1328 13.7891C48.1328 12.625 47.7812 11.8008 47.0781 11.3164C46.3828 10.832 45.3086 10.5898 43.8555 10.5898ZM63.9353 26H54.3962V8.86719H63.9353V10.625H56.3884V16.168H63.5017V17.9023H56.3884V24.2422H63.9353V26ZM69.9644 26H67.9722V8.86719H77.5112V10.625H69.9644V16.9062H77.0542V18.6523H69.9644V26ZM90.1497 26H80.6106V8.86719H90.1497V10.625H82.6028V16.168H89.7161V17.9023H82.6028V24.2422H90.1497V26ZM98.8155 8.86719C100.222 8.86719 101.382 9.04297 102.296 9.39453C103.218 9.73828 103.905 10.2656 104.358 10.9766C104.812 11.6875 105.038 12.5938 105.038 13.6953C105.038 14.6016 104.874 15.3594 104.546 15.9688C104.218 16.5703 103.788 17.0586 103.257 17.4336C102.726 17.8086 102.159 18.0977 101.558 18.3008L106.257 26H103.937L99.7412 18.8516H96.1787V26H94.1866V8.86719H98.8155ZM98.6983 10.5898H96.1787V17.1641H98.8975C100.296 17.1641 101.323 16.8789 101.98 16.3086C102.644 15.7383 102.976 14.8984 102.976 13.7891C102.976 12.625 102.624 11.8008 101.921 11.3164C101.226 10.832 100.151 10.5898 98.6983 10.5898ZM109.239 26V8.86719H111.231V26H109.239ZM129.788 17.2695C129.788 19.1992 129.436 20.8125 128.733 22.1094C128.03 23.3984 127.01 24.3711 125.674 25.0273C124.346 25.6758 122.733 26 120.835 26H116.182V8.86719H121.35C123.092 8.86719 124.592 9.1875 125.85 9.82812C127.108 10.4609 128.077 11.4023 128.756 12.6523C129.444 13.8945 129.788 15.4336 129.788 17.2695ZM127.69 17.3398C127.69 15.8008 127.432 14.5312 126.917 13.5312C126.409 12.5312 125.659 11.7891 124.667 11.3047C123.682 10.8125 122.475 10.5664 121.045 10.5664H118.174V24.2891H120.6C122.96 24.2891 124.729 23.707 125.909 22.543C127.096 21.3789 127.69 19.6445 127.69 17.3398ZM148.696 17.4102C148.696 18.7305 148.528 19.9336 148.192 21.0195C147.856 22.0977 147.356 23.0273 146.692 23.8086C146.035 24.582 145.219 25.1797 144.243 25.6016C143.266 26.0234 142.133 26.2344 140.844 26.2344C139.516 26.2344 138.356 26.0234 137.364 25.6016C136.379 25.1797 135.559 24.5781 134.903 23.7969C134.254 23.0156 133.766 22.082 133.438 20.9961C133.118 19.9102 132.957 18.707 132.957 17.3867C132.957 15.6367 133.246 14.1016 133.825 12.7812C134.403 11.4609 135.278 10.4336 136.45 9.69922C137.629 8.96484 139.106 8.59766 140.879 8.59766C142.575 8.59766 144 8.96094 145.157 9.6875C146.321 10.4141 147.2 11.4375 147.793 12.7578C148.395 14.0703 148.696 15.6211 148.696 17.4102ZM135.055 17.4102C135.055 18.8633 135.262 20.1211 135.676 21.1836C136.09 22.2461 136.723 23.0664 137.575 23.6445C138.434 24.2227 139.524 24.5117 140.844 24.5117C142.172 24.5117 143.258 24.2227 144.102 23.6445C144.953 23.0664 145.582 22.2461 145.989 21.1836C146.395 20.1211 146.598 18.8633 146.598 17.4102C146.598 15.1992 146.133 13.4727 145.203 12.2305C144.282 10.9805 142.84 10.3555 140.879 10.3555C139.551 10.3555 138.457 10.6406 137.598 11.2109C136.739 11.7812 136.098 12.5938 135.676 13.6484C135.262 14.6953 135.055 15.9492 135.055 17.4102ZM162.424 21.4414C162.424 22.457 162.17 23.3242 161.662 24.043C161.162 24.7539 160.459 25.2969 159.553 25.6719C158.647 26.0469 157.58 26.2344 156.354 26.2344C155.705 26.2344 155.092 26.2031 154.514 26.1406C153.936 26.0781 153.404 25.9883 152.92 25.8711C152.436 25.7539 152.01 25.6094 151.643 25.4375V23.5273C152.229 23.7695 152.943 23.9961 153.787 24.207C154.631 24.4102 155.514 24.5117 156.436 24.5117C157.295 24.5117 158.022 24.3984 158.615 24.1719C159.209 23.9375 159.658 23.6055 159.963 23.1758C160.275 22.7383 160.432 22.2148 160.432 21.6055C160.432 21.0195 160.303 20.5312 160.045 20.1406C159.787 19.7422 159.357 19.3828 158.756 19.0625C158.162 18.7344 157.35 18.3867 156.318 18.0195C155.592 17.7617 154.951 17.4805 154.397 17.1758C153.842 16.8633 153.377 16.5117 153.002 16.1211C152.627 15.7305 152.342 15.2773 152.147 14.7617C151.959 14.2461 151.865 13.6562 151.865 12.9922C151.865 12.0781 152.096 11.2969 152.557 10.6484C153.025 9.99219 153.67 9.49219 154.49 9.14844C155.318 8.79688 156.268 8.62109 157.338 8.62109C158.252 8.62109 159.096 8.70703 159.869 8.87891C160.65 9.05078 161.365 9.28125 162.014 9.57031L161.393 11.2812C160.775 11.0234 160.119 10.8086 159.424 10.6367C158.736 10.4648 158.025 10.3789 157.291 10.3789C156.557 10.3789 155.936 10.4883 155.428 10.707C154.928 10.918 154.545 11.2188 154.279 11.6094C154.014 12 153.881 12.4648 153.881 13.0039C153.881 13.6055 154.006 14.1055 154.256 14.5039C154.514 14.9023 154.92 15.2578 155.475 15.5703C156.037 15.875 156.779 16.1953 157.701 16.5312C158.709 16.8984 159.565 17.2891 160.268 17.7031C160.971 18.1094 161.506 18.6094 161.873 19.2031C162.24 19.7891 162.424 20.5352 162.424 21.4414ZM176.187 26L175.344 22.7891H169.777L168.91 26H163.824L169.414 8.79688H175.59L181.25 26H176.187ZM174.383 18.9922L173.644 16.1797C173.566 15.875 173.453 15.4414 173.305 14.8789C173.156 14.3086 173.008 13.7227 172.859 13.1211C172.719 12.5117 172.609 12.0117 172.531 11.6211C172.461 12.0117 172.359 12.4961 172.226 13.0742C172.101 13.6445 171.969 14.2109 171.828 14.7734C171.695 15.3359 171.578 15.8047 171.476 16.1797L170.738 18.9922H174.383ZM189.283 8.86719C191.455 8.86719 193.08 9.33984 194.158 10.2852C195.244 11.2305 195.787 12.5742 195.787 14.3164C195.787 15.0977 195.673 15.8477 195.447 16.5664C195.228 17.2852 194.865 17.9258 194.357 18.4883C193.857 19.0508 193.189 19.4961 192.353 19.8242C191.525 20.1523 190.502 20.3164 189.283 20.3164H187.982V26H183.353V8.86719H189.283ZM189.177 12.6055H187.982V16.543H188.896C189.295 16.543 189.666 16.4766 190.009 16.3438C190.353 16.2031 190.627 15.9805 190.83 15.6758C191.041 15.3633 191.146 14.9492 191.146 14.4336C191.146 13.8945 190.986 13.457 190.666 13.1211C190.345 12.7773 189.849 12.6055 189.177 12.6055ZM204.687 8.86719C206.859 8.86719 208.484 9.33984 209.562 10.2852C210.648 11.2305 211.191 12.5742 211.191 14.3164C211.191 15.0977 211.077 15.8477 210.851 16.5664C210.632 17.2852 210.269 17.9258 209.761 18.4883C209.261 19.0508 208.593 19.4961 207.757 19.8242C206.929 20.1523 205.906 20.3164 204.687 20.3164H203.386V26H198.757V8.86719H204.687ZM204.581 12.6055H203.386V16.543H204.3C204.699 16.543 205.07 16.4766 205.413 16.3438C205.757 16.2031 206.031 15.9805 206.234 15.6758C206.445 15.3633 206.55 14.9492 206.55 14.4336C206.55 13.8945 206.39 13.457 206.07 13.1211C205.749 12.7773 205.253 12.6055 204.581 12.6055Z" fill="white"/>
</svg>