<svg xmlns="http://www.w3.org/2000/svg" viewBox="0 0 116.99 28.8">
    <defs>
        <style>.cls-1{fill:#111;}.cls-2{fill:#09a503;}</style>
    </defs>
    <g id="Capa_2" data-name="Capa 2">
        <g id="BACKGROUND">
            <polygon class="cls-1" points="13.17 8.59 8.63 16.21 3.97 8.59 0 8.59 0 22.9 4.4 22.9 4.4 16.6 7.5 21.62 9.63 21.62 12.74 16.38 12.78 22.9 17.17 22.9 17.13 8.59 13.17 8.59"/>
            <path class="cls-1" d="M32.79,10.38a7.68,7.68,0,0,0-2.55-1.56,9.73,9.73,0,0,0-6.45,0,7.67,7.67,0,0,0-2.57,1.56,7.32,7.32,0,0,0-1.68,2.37,7.22,7.22,0,0,0-.61,3,7.16,7.16,0,0,0,.61,3,7.05,7.05,0,0,0,1.68,2.38,7.53,7.53,0,0,0,2.57,1.57,9.18,9.18,0,0,0,3.24.55,9,9,0,0,0,3.21-.55,7.54,7.54,0,0,0,2.55-1.57,6.94,6.94,0,0,0,1.69-2.38,7.31,7.31,0,0,0,.6-3,7.37,7.37,0,0,0-.6-3A7.2,7.2,0,0,0,32.79,10.38ZM30,17.25a3.28,3.28,0,0,1-.68,1.13,3.14,3.14,0,0,1-1,.7,3.21,3.21,0,0,1-1.25.25,3.29,3.29,0,0,1-1.26-.25,3,3,0,0,1-1-.7A3.3,3.3,0,0,1,24,17.25a4.81,4.81,0,0,1,0-3,3.21,3.21,0,0,1,.69-1.13,2.86,2.86,0,0,1,1-.7A3.12,3.12,0,0,1,27,12.17a3,3,0,0,1,1.25.25,3,3,0,0,1,1,.7A3.19,3.19,0,0,1,30,14.25a4.14,4.14,0,0,1,.25,1.5A4.14,4.14,0,0,1,30,17.25Z"/>
            <polygon class="cls-1" points="46.25 15.1 40.81 8.59 36.84 8.59 36.84 22.9 41.54 22.9 41.54 16.4 46.98 22.9 50.95 22.9 50.95 8.59 46.25 8.59 46.25 15.1"/>
            <polygon class="cls-1" points="58.02 17.38 64.07 17.38 64.07 13.91 58.02 13.91 58.02 12.23 64.91 12.23 64.91 8.59 53.28 8.59 53.28 22.9 65.18 22.9 65.18 19.27 58.02 19.27 58.02 17.38"/>
            <polygon class="cls-1" points="80.84 8.59 76.18 8.59 73.23 13.55 70.31 8.59 65.22 8.59 70.62 17.66 70.62 22.9 75.44 22.9 75.44 17.71 80.84 8.59"/>
            <path class="cls-2" d="M89.54,12.18c-.06.13-.07.21,0,.24a.34.34,0,0,0,.25,0l1.11-.14c.38-.06.76-.11,1.15-.15a15.28,15.28,0,0,1,1.75-.1,8.37,8.37,0,0,1,1,.12l1,.14.11,0s0,.05-.08.11c-.17.22-.16.31,0,.26a1.12,1.12,0,0,1,.72.16,4.27,4.27,0,0,0,.58.33.41.41,0,0,1,.29.34c0,.16,0,.33.07.5a1.15,1.15,0,0,0,0,.31.33.33,0,0,1-.06.21A1,1,0,0,0,97,15a.68.68,0,0,1-.54.34l-1.16.21c-.39.08-.77.14-1.13.18q-2.79.39-5.6.59a1,1,0,0,0-.54.22.87.87,0,0,0-.24.52q-1,2.82-1.81,5.42t-1.59,5.23c-.09.26-.31.34-.68.26a0,0,0,0,1,0,0s0,0,0,0a1.36,1.36,0,0,1-.33-.06.24.24,0,0,1-.09-.08.4.4,0,0,1-.07-.13.57.57,0,0,0-.19-.21l0,0s0,0,0,0a.22.22,0,0,0-.06.13V28s0,0,0,.07l-.12.09a.26.26,0,0,1-.09-.16.42.42,0,0,0-.07-.26.82.82,0,0,0-.09-.32,2.55,2.55,0,0,0-.17.39,5.07,5.07,0,0,0-.22.74.56.56,0,0,1-.16.15l-.2.08c-.17,0-.26-.05-.26-.26s0-.43.05-.65a5,5,0,0,1,.08-.65,5,5,0,0,0,.15-1.06,3.37,3.37,0,0,0-.15-1.07.69.69,0,0,0-.22-.44.41.41,0,0,1-.13-.44c.15-.77.3-1.44.46-2s.34-1.07.54-1.57l.61-1.55c.22-.54.47-1.18.75-1.91.11-.3.14-.49.1-.55s-.23-.11-.55-.13l-.52-.1-.25-.11a.36.36,0,0,1-.17-.24c0-.09-.07-.13-.2-.12s-.21-.07-.26-.24a.69.69,0,0,0-.17-.26,1.1,1.1,0,0,1-.21-.22c-.13-.26,0-.41.29-.46l.19,0a.15.15,0,0,0,.13,0c.15-.07.16-.17,0-.32s-.2-.28-.16-.39a.39.39,0,0,1,.29-.23l.89-.13.89-.13a1.35,1.35,0,0,0,1.33-1c.24-.67.5-1.35.79-2s.58-1.36.86-2.05a4,4,0,0,1-.58.16l-.58.13a1.35,1.35,0,0,1-1.17-.16q-.28-.17,0-.39t0-.36c-.24-.21-.36-.35-.34-.42s.14-.19.4-.39a.77.77,0,0,0,.23-.32c0-.09,0-.18-.13-.29l-.16-.16a.57.57,0,0,1-.05-.41.7.7,0,0,1,.24-.31l.55-.26a.29.29,0,0,0,.08-.14.67.67,0,0,1,.08-.18.69.69,0,0,1-.18,0h-.21l-.13,0c-.06,0-.11,0-.14.13s-.09.08-.18,0,0,0,.06-.12l.17-.17a3.79,3.79,0,0,1,.76-.41,1.21,1.21,0,0,1,.82,0,.53.53,0,0,0,.25,0l.21-.07a11.31,11.31,0,0,0,1.39-.35l.48-.15A.67.67,0,0,0,89,3.31c0-.15.22-.23.52-.26a1.54,1.54,0,0,1,.77.13,1,1,0,0,0,.59.13l.9-.14L92.68,3c.3,0,.61-.1.94-.16a4.36,4.36,0,0,1,.94-.1l1.08-.09,1.48-.13,1.48-.12c.48,0,.85,0,1.1,0a.53.53,0,0,0,.2-.06s-.07,0-.08-.07,0,0-.08,0H98.22l-1.06.12-1.45.16-1.48.14-1.1.1s-.1,0-.19,0l.19-.1,1-.13,1-.13c.13,0,.36,0,.71-.06l1.1-.13L98,2c.35,0,.58,0,.71,0s.52,0,.78,0a5.12,5.12,0,0,1,.78.06,1.46,1.46,0,0,1,1.1.55,1.83,1.83,0,0,0,.71.59.65.65,0,0,1,.15.12l.11.17c.15.21.17.37.06.47a4.11,4.11,0,0,0-.29.3c-.11.11-.14.17-.11.18l.15,0h.19a.32.32,0,0,1,.18,0,.18.18,0,0,1,.14.08.35.35,0,0,1,0,.28c0,.08-.1.12-.21.15a.88.88,0,0,0-.24.12c-.06,0,0,.15,0,.3s0,.17,0,.19l-.26.07-1.39.16L99.15,6l-1.5.14c-.62.06-1.25.12-1.91.2s-1.3.15-1.91.24-1.12.17-1.51.26A1.42,1.42,0,0,0,92,7a.7.7,0,0,0-.24.29l-.26.07v0c-.28.78-.57,1.54-.87,2.3s-.61,1.51-.91,2.26Z"/>
            <path class="cls-2" d="M111.1,4.64c-.43.78-.85,1.52-1.26,2.23l-.41.67-.74,1.19c-.29.47-.6.95-.91,1.46l-.9,1.46q-.45.69-.75,1.2c-.21.33-.34.55-.4.66a2.49,2.49,0,0,0-.21.44c-.06.14-.12.29-.18.47a.09.09,0,0,0,0,.09.08.08,0,0,0,.08.07c0,.06.1.06.16,0a.28.28,0,0,0,.1-.25.58.58,0,0,1,.07-.3c.1-.2.27-.47.5-.83L107,12c.3-.48.61-1,.94-1.49s.67-1,1-1.56q.75-1.2,1.38-2.31c.42-.75.71-1.27.89-1.57a11.43,11.43,0,0,1,1.37-1.75A11.54,11.54,0,0,0,114,1.56c.17-.23.34-.47.52-.69l.51-.7.15-.13c.05,0,.09,0,.11,0a.48.48,0,0,1,.33.26,1,1,0,0,1-.07.78c-.13.19-.08.36.13.51s.39.23.58,0l.36-.36a.38.38,0,0,1,.16,0v.13l-.06.13a.28.28,0,0,0,0,.13v.16c0,.06,0,.1,0,.1a.46.46,0,0,1,.29.34,3.28,3.28,0,0,1,0,.47v.46a.62.62,0,0,1-.23.44,2.48,2.48,0,0,0-.43.49,2.81,2.81,0,0,1-.44.48c-.19.18-.26.32-.21.44a.9.9,0,0,0,.23.32,2.34,2.34,0,0,1,.24.31c.06.11,0,.25-.16.42-.35.37-.77.87-1.28,1.51s-1,1.33-1.6,2.08S112,11.17,111.39,12s-1.13,1.6-1.63,2.34-1,1.42-1.35,2-.68,1.08-.87,1.42c-.69,1.23-1.36,2.46-2,3.68s-1.25,2.47-1.81,3.77c0,.08-.13.26-.26.52l-.42.82-.42.83a3.66,3.66,0,0,0-.23.51,1.54,1.54,0,0,1-.26.47.91.91,0,0,1-.45.31.25.25,0,0,1-.19-.06c-.07-.05-.09-.17,0-.38a4.47,4.47,0,0,1,.14-.61c.07-.21.12-.38.16-.54s.05-.19,0-.12a1,1,0,0,1-.51.3,2.52,2.52,0,0,0-.55.18.24.24,0,0,1-.36-.16.59.59,0,0,1-.08-.44c0-.14.07-.28.11-.43a1.57,1.57,0,0,0,.07-.52,2,2,0,0,0-.12.19l-.11.23c-.13.19-.26.38-.39.55a.29.29,0,0,1,0-.39.51.51,0,0,0,.13-.32,1.8,1.8,0,0,0,.08-.39c0-.13,0-.27,0-.42a7.47,7.47,0,0,1,.34-1.14c.14-.36.3-.74.47-1.13l.53-1.26c.18-.43.37-.86.57-1.3s.33-.73.47-1.1.29-.73.47-1.1a.65.65,0,0,0-.1-.81,1,1,0,0,1-.31-.53,3.18,3.18,0,0,0-.14-.53c-.11-.24-.22-.47-.34-.68a4.38,4.38,0,0,0-.44-.65,11,11,0,0,1-1.13-1.56c-.33-.54-.64-1.09-.94-1.65s-.75-1.41-1.14-2.1-.76-1.38-1.13-2.07c-.06-.15-.13-.3-.19-.44s-.13-.3-.2-.47a.2.2,0,0,1,0-.13.08.08,0,0,1,.08-.06.63.63,0,0,1,.23,0c.25.11.37.05.35-.16a.79.79,0,0,1,.11-.6,1.56,1.56,0,0,0,.25-.5c0-.11.07-.19.21-.25L98.41,5a.63.63,0,0,1,.21.08.83.83,0,0,1,.21.14.87.87,0,0,1,.15.2.64.64,0,0,0,.11.16.21.21,0,0,0,.13.07.11.11,0,0,1,0-.09s0,0,0,0a3.14,3.14,0,0,0-.15-.49c0-.15-.1-.3-.14-.45a.53.53,0,0,1,.06-.2.29.29,0,0,1,.23.07.64.64,0,0,1,.1.13.77.77,0,0,0,.09.13c.11.1.2.08.26-.07s0,0,0-.06a.34.34,0,0,0,.06-.33c0-.1,0-.18.16-.22s.1.06.18.17l.18.31c.1.18.21.34.3.5s.19.33.28.51c.24.41.46.82.68,1.24s.43.84.65,1.25a4.81,4.81,0,0,1,.26.5,3.33,3.33,0,0,0,.25.5q.17.23.33.42a1.83,1.83,0,0,1,.26.42c.26.5.52,1,.77,1.44s.52.95.78,1.44c.09.18.15.32.2.43a.17.17,0,0,0,.14.09.19.19,0,0,0,.15-.09c0-.09.16-.29.35-.6l.7-1.12.87-1.39.88-1.39.69-1.1a6.62,6.62,0,0,0,.36-.59c.24-.41.48-.81.73-1.2s.49-.78.73-1.19l.11-.18s.09,0,.18.05Zm-10,19.45a.35.35,0,0,0,.09-.16,2,2,0,0,1,.1-.22c.35-.82.69-1.64,1-2.45s.69-1.62,1-2.44a.47.47,0,0,0,.16-.26l0-.07,0,0c-.11-.06-.16-.05-.16,0a.22.22,0,0,0-.1.09.47.47,0,0,1-.1.11,7,7,0,0,1-.26.66c-.08.21-.18.43-.29.67-.23.56-.47,1.12-.69,1.7s-.45,1.13-.67,1.69l-.11.28L101,24a.19.19,0,0,0,0,.13Zm9.84-19.61a.91.91,0,0,1,.52-.91l.14-.14.15-.15s.08-.06.11,0a.14.14,0,0,0,.11,0,.36.36,0,0,0,0,.11.08.08,0,0,1,0,.08,13.66,13.66,0,0,1-.87,1.23Zm4.5-2.4L115.36,2h-.12a0,0,0,0,0,0,0q-.17.25-.27.45a3.16,3.16,0,0,1-.28.39c-.11.17-.23.34-.37.52a3.54,3.54,0,0,0-.37.52s0,.07,0,.16A.16.16,0,0,0,114,4l.63-.76c.21-.25.41-.5.6-.76a.35.35,0,0,0,.1-.19A.38.38,0,0,1,115.44,2.08Z"/>
        </g>
    </g>
</svg>